<svg width="102" height="32" viewBox="0 0 102 32" fill="none" xmlns="http://www.w3.org/2000/svg">
<rect width="102" height="32.0024" rx="16.0012" fill="#DAFDFF"/>
<path d="M43.176 12.632C42.8773 12.2307 42.5087 11.932 42.07 11.736C41.6313 11.5307 41.174 11.428 40.698 11.428C40.1473 11.428 39.6387 11.54 39.172 11.764C38.7147 11.988 38.318 12.2913 37.982 12.674C37.646 13.0473 37.3847 13.486 37.198 13.99C37.0113 14.4847 36.918 15.0027 36.918 15.544C36.918 16.1227 37.0113 16.664 37.198 17.168C37.3847 17.6627 37.6413 18.0967 37.968 18.47C38.304 18.834 38.7007 19.1233 39.158 19.338C39.6247 19.5527 40.138 19.66 40.698 19.66C41.3047 19.66 41.846 19.5433 42.322 19.31C42.798 19.0673 43.2133 18.722 43.568 18.274L44.45 19.016C44.002 19.6133 43.4607 20.052 42.826 20.332C42.2007 20.612 41.4913 20.752 40.698 20.752C39.9887 20.752 39.326 20.6213 38.71 20.36C38.094 20.0987 37.5573 19.7393 37.1 19.282C36.652 18.8153 36.2973 18.2647 36.036 17.63C35.784 16.9953 35.658 16.3 35.658 15.544C35.658 14.816 35.7793 14.1347 36.022 13.5C36.274 12.8653 36.624 12.3147 37.072 11.848C37.52 11.3813 38.052 11.0127 38.668 10.742C39.284 10.4713 39.9607 10.336 40.698 10.336C41.37 10.336 42.014 10.4573 42.63 10.7C43.2553 10.9427 43.778 11.3393 44.198 11.89L43.176 12.632ZM48.5814 21.998C48.4694 22.278 48.3528 22.53 48.2314 22.754C48.1194 22.9873 47.9794 23.1833 47.8114 23.342C47.6528 23.51 47.4568 23.636 47.2234 23.72C46.9994 23.8133 46.7241 23.86 46.3974 23.86C46.2388 23.86 46.0708 23.8507 45.8934 23.832C45.7254 23.8133 45.5668 23.7667 45.4174 23.692L45.5574 22.74C45.6694 22.7867 45.7861 22.8147 45.9074 22.824C46.0288 22.8427 46.1688 22.852 46.3274 22.852C46.6821 22.852 46.9434 22.754 47.1114 22.558C47.2794 22.362 47.4241 22.1007 47.5454 21.774L47.9934 20.542L45.2774 13.948H46.5514L48.5814 19.086H48.6094L50.5554 13.948H51.7454L48.5814 21.998ZM57.8693 15.586C57.636 15.306 57.384 15.1053 57.1133 14.984C56.8427 14.8533 56.544 14.788 56.2173 14.788C55.8533 14.788 55.5313 14.8533 55.2513 14.984C54.9713 15.1053 54.738 15.278 54.5513 15.502C54.374 15.726 54.2387 15.9873 54.1453 16.286C54.052 16.5753 54.0053 16.888 54.0053 17.224C54.0053 17.56 54.0567 17.8773 54.1593 18.176C54.2713 18.4653 54.4207 18.722 54.6073 18.946C54.8033 19.17 55.0367 19.3473 55.3073 19.478C55.578 19.5993 55.8813 19.66 56.2173 19.66C56.936 19.66 57.4913 19.3893 57.8833 18.848L58.6953 19.618C58.378 19.982 58.0047 20.248 57.5753 20.416C57.146 20.584 56.6933 20.668 56.2173 20.668C55.7133 20.668 55.2513 20.584 54.8313 20.416C54.4113 20.248 54.052 20.01 53.7533 19.702C53.464 19.394 53.2353 19.03 53.0673 18.61C52.9087 18.19 52.8293 17.728 52.8293 17.224C52.8293 16.7293 52.9087 16.272 53.0673 15.852C53.2353 15.432 53.4687 15.068 53.7673 14.76C54.066 14.452 54.4207 14.214 54.8313 14.046C55.2513 13.8687 55.7133 13.78 56.2173 13.78C56.7027 13.78 57.16 13.864 57.5893 14.032C58.028 14.2 58.4107 14.4613 58.7373 14.816L57.8693 15.586ZM60.3392 9.916H61.4312V20.5H60.3392V9.916ZM63.9962 13.948H65.0882V20.5H63.9962V13.948ZM63.7442 11.386C63.7442 11.1713 63.8189 10.9847 63.9682 10.826C64.1269 10.6673 64.3182 10.588 64.5422 10.588C64.7662 10.588 64.9529 10.6673 65.1022 10.826C65.2609 10.9847 65.3402 11.1713 65.3402 11.386C65.3402 11.6193 65.2655 11.8107 65.1162 11.96C64.9669 12.1093 64.7755 12.184 64.5422 12.184C64.3089 12.184 64.1175 12.1093 63.9682 11.96C63.8189 11.8107 63.7442 11.6193 63.7442 11.386ZM67.6815 18.778C67.8961 19.0487 68.1295 19.2633 68.3815 19.422C68.6428 19.5807 68.9695 19.66 69.3615 19.66C69.5295 19.66 69.6975 19.6413 69.8655 19.604C70.0428 19.5667 70.2015 19.506 70.3415 19.422C70.4815 19.338 70.5935 19.2353 70.6775 19.114C70.7615 18.9833 70.8035 18.8293 70.8035 18.652C70.8035 18.4747 70.7615 18.33 70.6775 18.218C70.6028 18.106 70.5001 18.0127 70.3695 17.938C70.2388 17.854 70.0895 17.7887 69.9215 17.742C69.7535 17.6953 69.5808 17.6533 69.4035 17.616C69.0955 17.5507 68.8015 17.476 68.5215 17.392C68.2415 17.308 67.9941 17.2007 67.7795 17.07C67.5741 16.93 67.4061 16.7527 67.2755 16.538C67.1541 16.3233 67.0935 16.048 67.0935 15.712C67.0935 15.3947 67.1635 15.1147 67.3035 14.872C67.4435 14.6293 67.6301 14.4287 67.8635 14.27C68.0968 14.1113 68.3581 13.99 68.6475 13.906C68.9368 13.822 69.2355 13.78 69.5435 13.78C70.0101 13.78 70.4395 13.8733 70.8315 14.06C71.2328 14.2467 71.5455 14.55 71.7695 14.97L70.8595 15.572C70.7195 15.3387 70.5328 15.152 70.2995 15.012C70.0755 14.8627 69.8001 14.788 69.4735 14.788C69.3241 14.788 69.1701 14.8067 69.0115 14.844C68.8621 14.8813 68.7268 14.9373 68.6055 15.012C68.4841 15.0867 68.3815 15.1847 68.2975 15.306C68.2228 15.418 68.1855 15.5487 68.1855 15.698C68.1855 15.838 68.2275 15.9593 68.3115 16.062C68.4048 16.1553 68.5261 16.2393 68.6755 16.314C68.8341 16.3887 69.0115 16.454 69.2075 16.51C69.4128 16.566 69.6228 16.6127 69.8375 16.65C70.1268 16.706 70.4021 16.7807 70.6635 16.874C70.9248 16.958 71.1535 17.0747 71.3495 17.224C71.5455 17.3733 71.6995 17.56 71.8115 17.784C71.9235 18.008 71.9795 18.2833 71.9795 18.61C71.9795 18.9833 71.9048 19.3007 71.7555 19.562C71.6061 19.8233 71.4055 20.038 71.1535 20.206C70.9108 20.3647 70.6308 20.4813 70.3135 20.556C70.0055 20.6307 69.6881 20.668 69.3615 20.668C68.8015 20.668 68.3161 20.584 67.9055 20.416C67.5041 20.2387 67.1401 19.9167 66.8135 19.45L67.6815 18.778ZM77.3664 14.872H75.4344V18.148C75.4344 18.3627 75.4391 18.5633 75.4484 18.75C75.4577 18.9273 75.4951 19.086 75.5604 19.226C75.6257 19.3567 75.7237 19.464 75.8544 19.548C75.9851 19.6227 76.1717 19.66 76.4144 19.66C76.5731 19.66 76.7364 19.6413 76.9044 19.604C77.0724 19.5667 77.2311 19.5107 77.3804 19.436L77.4224 20.43C77.2357 20.514 77.0257 20.5747 76.7924 20.612C76.5684 20.6493 76.3537 20.668 76.1484 20.668C75.7564 20.668 75.4437 20.6167 75.2104 20.514C74.9771 20.4113 74.7951 20.2667 74.6644 20.08C74.5337 19.8933 74.4451 19.6647 74.3984 19.394C74.3611 19.114 74.3424 18.806 74.3424 18.47V14.872H72.9144V13.948H74.3424V12.086H75.4344V13.948H77.3664V14.872Z" fill="#0F3F62"/>
<circle cx="23" cy="16.5" r="4" fill="#3DEBF6"/>
</svg>
