<svg width="320" height="311" viewBox="0 0 320 311" fill="none" xmlns="http://www.w3.org/2000/svg">
<rect y="6.10352e-05" width="320" height="311" rx="15" fill="white"/>
<path d="M0 15.0001C0 6.71579 6.71573 6.10352e-05 15 6.10352e-05L305 6.10352e-05C313.284 6.10352e-05 320 6.71579 320 15.0001V54.0001L0 54.0001L0 15.0001Z" fill="#5DC2C4"/>
<path d="M25.216 20.6721H27.232V32.0001H25.216V20.6721ZM29.8611 24.3201H31.7811V25.5361H31.8131C32.0265 25.0881 32.3305 24.7414 32.7251 24.4961C33.1198 24.2507 33.5731 24.1281 34.0851 24.1281C34.2025 24.1281 34.3145 24.1387 34.4211 24.1601C34.5385 24.1814 34.6558 24.2081 34.7731 24.2401V26.0961C34.6131 26.0534 34.4531 26.0214 34.2931 26.0001C34.1438 25.9681 33.9945 25.9521 33.8451 25.9521C33.3971 25.9521 33.0345 26.0374 32.7571 26.2081C32.4905 26.3681 32.2825 26.5547 32.1331 26.7681C31.9945 26.9814 31.8985 27.1947 31.8451 27.4081C31.8025 27.6214 31.7811 27.7814 31.7811 27.8881V32.0001H29.8611V24.3201ZM35.7346 28.1601C35.7346 27.5521 35.8413 27.0027 36.0546 26.5121C36.2786 26.0107 36.5773 25.5841 36.9506 25.2321C37.324 24.8801 37.7666 24.6081 38.2786 24.4161C38.7906 24.2241 39.3346 24.1281 39.9106 24.1281C40.4866 24.1281 41.0306 24.2241 41.5426 24.4161C42.0546 24.6081 42.4973 24.8801 42.8706 25.2321C43.244 25.5841 43.5373 26.0107 43.7506 26.5121C43.9746 27.0027 44.0866 27.5521 44.0866 28.1601C44.0866 28.7681 43.9746 29.3227 43.7506 29.8241C43.5373 30.3147 43.244 30.7361 42.8706 31.0881C42.4973 31.4401 42.0546 31.7121 41.5426 31.9041C41.0306 32.0961 40.4866 32.1921 39.9106 32.1921C39.3346 32.1921 38.7906 32.0961 38.2786 31.9041C37.7666 31.7121 37.324 31.4401 36.9506 31.0881C36.5773 30.7361 36.2786 30.3147 36.0546 29.8241C35.8413 29.3227 35.7346 28.7681 35.7346 28.1601ZM37.6546 28.1601C37.6546 28.4587 37.7026 28.7467 37.7986 29.0241C37.9053 29.3014 38.0546 29.5467 38.2466 29.7601C38.4493 29.9734 38.6893 30.1441 38.9666 30.2721C39.244 30.4001 39.5586 30.4641 39.9106 30.4641C40.2626 30.4641 40.5773 30.4001 40.8546 30.2721C41.132 30.1441 41.3666 29.9734 41.5586 29.7601C41.7613 29.5467 41.9106 29.3014 42.0066 29.0241C42.1133 28.7467 42.1666 28.4587 42.1666 28.1601C42.1666 27.8614 42.1133 27.5734 42.0066 27.2961C41.9106 27.0187 41.7613 26.7734 41.5586 26.5601C41.3666 26.3467 41.132 26.1761 40.8546 26.0481C40.5773 25.9201 40.2626 25.8561 39.9106 25.8561C39.5586 25.8561 39.244 25.9201 38.9666 26.0481C38.6893 26.1761 38.4493 26.3467 38.2466 26.5601C38.0546 26.7734 37.9053 27.0187 37.7986 27.2961C37.7026 27.5734 37.6546 27.8614 37.6546 28.1601ZM46.2042 24.3201H48.0282V25.5521H48.0602C48.2416 25.1681 48.5189 24.8374 48.8922 24.5601C49.2656 24.2721 49.7722 24.1281 50.4122 24.1281C50.9242 24.1281 51.3562 24.2134 51.7082 24.3841C52.0709 24.5547 52.3642 24.7787 52.5882 25.0561C52.8122 25.3334 52.9722 25.6534 53.0682 26.0161C53.1642 26.3787 53.2122 26.7574 53.2122 27.1521V32.0001H51.2922V28.1121C51.2922 27.8987 51.2816 27.6641 51.2602 27.4081C51.2389 27.1414 51.1802 26.8961 51.0842 26.6721C50.9989 26.4374 50.8602 26.2454 50.6682 26.0961C50.4762 25.9361 50.2149 25.8561 49.8842 25.8561C49.5642 25.8561 49.2922 25.9094 49.0682 26.0161C48.8549 26.1227 48.6736 26.2667 48.5242 26.4481C48.3856 26.6294 48.2842 26.8374 48.2202 27.0721C48.1562 27.3067 48.1242 27.5521 48.1242 27.8081V32.0001H46.2042V24.3201ZM55.6318 24.3201H57.4558V25.5201H57.4878C57.6584 25.1574 57.9304 24.8374 58.3038 24.5601C58.6878 24.2721 59.1998 24.1281 59.8398 24.1281C61.0451 24.1281 61.8451 24.6027 62.2398 25.5521C62.5171 25.0614 62.8638 24.7041 63.2798 24.4801C63.6958 24.2454 64.1918 24.1281 64.7678 24.1281C65.2798 24.1281 65.7118 24.2134 66.0638 24.3841C66.4158 24.5547 66.6984 24.7894 66.9118 25.0881C67.1358 25.3867 67.2958 25.7387 67.3918 26.1441C67.4878 26.5387 67.5358 26.9654 67.5358 27.4241V32.0001H65.6158V27.6481C65.6158 27.4134 65.5944 27.1894 65.5518 26.9761C65.5091 26.7521 65.4344 26.5601 65.3278 26.4001C65.2211 26.2294 65.0771 26.0961 64.8958 26.0001C64.7144 25.9041 64.4798 25.8561 64.1918 25.8561C63.8931 25.8561 63.6371 25.9147 63.4238 26.0321C63.2211 26.1387 63.0504 26.2881 62.9118 26.4801C62.7838 26.6614 62.6878 26.8747 62.6238 27.1201C62.5704 27.3547 62.5438 27.5947 62.5438 27.8401V32.0001H60.6238V27.4241C60.6238 26.9441 60.5224 26.5654 60.3198 26.2881C60.1171 26.0001 59.7811 25.8561 59.3118 25.8561C58.9918 25.8561 58.7198 25.9094 58.4958 26.0161C58.2824 26.1227 58.1011 26.2667 57.9518 26.4481C57.8131 26.6294 57.7118 26.8374 57.6478 27.0721C57.5838 27.3067 57.5518 27.5521 57.5518 27.8081V32.0001H55.6318V24.3201ZM71.4896 28.8321C71.5536 29.4081 71.7776 29.8561 72.1616 30.1761C72.5456 30.4961 73.0096 30.6561 73.5536 30.6561C74.0336 30.6561 74.4336 30.5601 74.7536 30.3681C75.0843 30.1654 75.3723 29.9147 75.6176 29.6161L76.9936 30.6561C76.5456 31.2107 76.0443 31.6054 75.4896 31.8401C74.935 32.0747 74.3536 32.1921 73.7456 32.1921C73.1696 32.1921 72.6256 32.0961 72.1136 31.9041C71.6016 31.7121 71.159 31.4401 70.7856 31.0881C70.4123 30.7361 70.1136 30.3147 69.8896 29.8241C69.6763 29.3227 69.5696 28.7681 69.5696 28.1601C69.5696 27.5521 69.6763 27.0027 69.8896 26.5121C70.1136 26.0107 70.4123 25.5841 70.7856 25.2321C71.159 24.8801 71.6016 24.6081 72.1136 24.4161C72.6256 24.2241 73.1696 24.1281 73.7456 24.1281C74.279 24.1281 74.7643 24.2241 75.2016 24.4161C75.6496 24.5974 76.0283 24.8641 76.3376 25.2161C76.6576 25.5681 76.903 26.0054 77.0736 26.5281C77.255 27.0401 77.3456 27.6321 77.3456 28.3041V28.8321H71.4896ZM75.4256 27.3921C75.415 26.8267 75.239 26.3841 74.8976 26.0641C74.5563 25.7334 74.0816 25.5681 73.4736 25.5681C72.8976 25.5681 72.439 25.7334 72.0976 26.0641C71.767 26.3947 71.5643 26.8374 71.4896 27.3921H75.4256ZM79.4611 24.3201H81.2851V25.5521H81.3171C81.4985 25.1681 81.7758 24.8374 82.1491 24.5601C82.5225 24.2721 83.0291 24.1281 83.6691 24.1281C84.1811 24.1281 84.6131 24.2134 84.9651 24.3841C85.3278 24.5547 85.6211 24.7787 85.8451 25.0561C86.0691 25.3334 86.2291 25.6534 86.3251 26.0161C86.4211 26.3787 86.4691 26.7574 86.4691 27.1521V32.0001H84.5491V28.1121C84.5491 27.8987 84.5385 27.6641 84.5171 27.4081C84.4958 27.1414 84.4371 26.8961 84.3411 26.6721C84.2558 26.4374 84.1171 26.2454 83.9251 26.0961C83.7331 25.9361 83.4718 25.8561 83.1411 25.8561C82.8211 25.8561 82.5491 25.9094 82.3251 26.0161C82.1118 26.1227 81.9305 26.2667 81.7811 26.4481C81.6425 26.6294 81.5411 26.8374 81.4771 27.0721C81.4131 27.3067 81.3811 27.5521 81.3811 27.8081V32.0001H79.4611V24.3201Z" fill="white"/>
<path d="M25.216 20.6721H27.232V32.0001H25.216V20.6721ZM29.8611 24.3201H31.7811V25.5361H31.8131C32.0265 25.0881 32.3305 24.7414 32.7251 24.4961C33.1198 24.2507 33.5731 24.1281 34.0851 24.1281C34.2025 24.1281 34.3145 24.1387 34.4211 24.1601C34.5385 24.1814 34.6558 24.2081 34.7731 24.2401V26.0961C34.6131 26.0534 34.4531 26.0214 34.2931 26.0001C34.1438 25.9681 33.9945 25.9521 33.8451 25.9521C33.3971 25.9521 33.0345 26.0374 32.7571 26.2081C32.4905 26.3681 32.2825 26.5547 32.1331 26.7681C31.9945 26.9814 31.8985 27.1947 31.8451 27.4081C31.8025 27.6214 31.7811 27.7814 31.7811 27.8881V32.0001H29.8611V24.3201ZM35.7346 28.1601C35.7346 27.5521 35.8413 27.0027 36.0546 26.5121C36.2786 26.0107 36.5773 25.5841 36.9506 25.2321C37.324 24.8801 37.7666 24.6081 38.2786 24.4161C38.7906 24.2241 39.3346 24.1281 39.9106 24.1281C40.4866 24.1281 41.0306 24.2241 41.5426 24.4161C42.0546 24.6081 42.4973 24.8801 42.8706 25.2321C43.244 25.5841 43.5373 26.0107 43.7506 26.5121C43.9746 27.0027 44.0866 27.5521 44.0866 28.1601C44.0866 28.7681 43.9746 29.3227 43.7506 29.8241C43.5373 30.3147 43.244 30.7361 42.8706 31.0881C42.4973 31.4401 42.0546 31.7121 41.5426 31.9041C41.0306 32.0961 40.4866 32.1921 39.9106 32.1921C39.3346 32.1921 38.7906 32.0961 38.2786 31.9041C37.7666 31.7121 37.324 31.4401 36.9506 31.0881C36.5773 30.7361 36.2786 30.3147 36.0546 29.8241C35.8413 29.3227 35.7346 28.7681 35.7346 28.1601ZM37.6546 28.1601C37.6546 28.4587 37.7026 28.7467 37.7986 29.0241C37.9053 29.3014 38.0546 29.5467 38.2466 29.7601C38.4493 29.9734 38.6893 30.1441 38.9666 30.2721C39.244 30.4001 39.5586 30.4641 39.9106 30.4641C40.2626 30.4641 40.5773 30.4001 40.8546 30.2721C41.132 30.1441 41.3666 29.9734 41.5586 29.7601C41.7613 29.5467 41.9106 29.3014 42.0066 29.0241C42.1133 28.7467 42.1666 28.4587 42.1666 28.1601C42.1666 27.8614 42.1133 27.5734 42.0066 27.2961C41.9106 27.0187 41.7613 26.7734 41.5586 26.5601C41.3666 26.3467 41.132 26.1761 40.8546 26.0481C40.5773 25.9201 40.2626 25.8561 39.9106 25.8561C39.5586 25.8561 39.244 25.9201 38.9666 26.0481C38.6893 26.1761 38.4493 26.3467 38.2466 26.5601C38.0546 26.7734 37.9053 27.0187 37.7986 27.2961C37.7026 27.5734 37.6546 27.8614 37.6546 28.1601ZM46.2042 24.3201H48.0282V25.5521H48.0602C48.2416 25.1681 48.5189 24.8374 48.8922 24.5601C49.2656 24.2721 49.7722 24.1281 50.4122 24.1281C50.9242 24.1281 51.3562 24.2134 51.7082 24.3841C52.0709 24.5547 52.3642 24.7787 52.5882 25.0561C52.8122 25.3334 52.9722 25.6534 53.0682 26.0161C53.1642 26.3787 53.2122 26.7574 53.2122 27.1521V32.0001H51.2922V28.1121C51.2922 27.8987 51.2816 27.6641 51.2602 27.4081C51.2389 27.1414 51.1802 26.8961 51.0842 26.6721C50.9989 26.4374 50.8602 26.2454 50.6682 26.0961C50.4762 25.9361 50.2149 25.8561 49.8842 25.8561C49.5642 25.8561 49.2922 25.9094 49.0682 26.0161C48.8549 26.1227 48.6736 26.2667 48.5242 26.4481C48.3856 26.6294 48.2842 26.8374 48.2202 27.0721C48.1562 27.3067 48.1242 27.5521 48.1242 27.8081V32.0001H46.2042V24.3201ZM55.6318 24.3201H57.4558V25.5201H57.4878C57.6584 25.1574 57.9304 24.8374 58.3038 24.5601C58.6878 24.2721 59.1998 24.1281 59.8398 24.1281C61.0451 24.1281 61.8451 24.6027 62.2398 25.5521C62.5171 25.0614 62.8638 24.7041 63.2798 24.4801C63.6958 24.2454 64.1918 24.1281 64.7678 24.1281C65.2798 24.1281 65.7118 24.2134 66.0638 24.3841C66.4158 24.5547 66.6984 24.7894 66.9118 25.0881C67.1358 25.3867 67.2958 25.7387 67.3918 26.1441C67.4878 26.5387 67.5358 26.9654 67.5358 27.4241V32.0001H65.6158V27.6481C65.6158 27.4134 65.5944 27.1894 65.5518 26.9761C65.5091 26.7521 65.4344 26.5601 65.3278 26.4001C65.2211 26.2294 65.0771 26.0961 64.8958 26.0001C64.7144 25.9041 64.4798 25.8561 64.1918 25.8561C63.8931 25.8561 63.6371 25.9147 63.4238 26.0321C63.2211 26.1387 63.0504 26.2881 62.9118 26.4801C62.7838 26.6614 62.6878 26.8747 62.6238 27.1201C62.5704 27.3547 62.5438 27.5947 62.5438 27.8401V32.0001H60.6238V27.4241C60.6238 26.9441 60.5224 26.5654 60.3198 26.2881C60.1171 26.0001 59.7811 25.8561 59.3118 25.8561C58.9918 25.8561 58.7198 25.9094 58.4958 26.0161C58.2824 26.1227 58.1011 26.2667 57.9518 26.4481C57.8131 26.6294 57.7118 26.8374 57.6478 27.0721C57.5838 27.3067 57.5518 27.5521 57.5518 27.8081V32.0001H55.6318V24.3201ZM71.4896 28.8321C71.5536 29.4081 71.7776 29.8561 72.1616 30.1761C72.5456 30.4961 73.0096 30.6561 73.5536 30.6561C74.0336 30.6561 74.4336 30.5601 74.7536 30.3681C75.0843 30.1654 75.3723 29.9147 75.6176 29.6161L76.9936 30.6561C76.5456 31.2107 76.0443 31.6054 75.4896 31.8401C74.935 32.0747 74.3536 32.1921 73.7456 32.1921C73.1696 32.1921 72.6256 32.0961 72.1136 31.9041C71.6016 31.7121 71.159 31.4401 70.7856 31.0881C70.4123 30.7361 70.1136 30.3147 69.8896 29.8241C69.6763 29.3227 69.5696 28.7681 69.5696 28.1601C69.5696 27.5521 69.6763 27.0027 69.8896 26.5121C70.1136 26.0107 70.4123 25.5841 70.7856 25.2321C71.159 24.8801 71.6016 24.6081 72.1136 24.4161C72.6256 24.2241 73.1696 24.1281 73.7456 24.1281C74.279 24.1281 74.7643 24.2241 75.2016 24.4161C75.6496 24.5974 76.0283 24.8641 76.3376 25.2161C76.6576 25.5681 76.903 26.0054 77.0736 26.5281C77.255 27.0401 77.3456 27.6321 77.3456 28.3041V28.8321H71.4896ZM75.4256 27.3921C75.415 26.8267 75.239 26.3841 74.8976 26.0641C74.5563 25.7334 74.0816 25.5681 73.4736 25.5681C72.8976 25.5681 72.439 25.7334 72.0976 26.0641C71.767 26.3947 71.5643 26.8374 71.4896 27.3921H75.4256ZM79.4611 24.3201H81.2851V25.5521H81.3171C81.4985 25.1681 81.7758 24.8374 82.1491 24.5601C82.5225 24.2721 83.0291 24.1281 83.6691 24.1281C84.1811 24.1281 84.6131 24.2134 84.9651 24.3841C85.3278 24.5547 85.6211 24.7787 85.8451 25.0561C86.0691 25.3334 86.2291 25.6534 86.3251 26.0161C86.4211 26.3787 86.4691 26.7574 86.4691 27.1521V32.0001H84.5491V28.1121C84.5491 27.8987 84.5385 27.6641 84.5171 27.4081C84.4958 27.1414 84.4371 26.8961 84.3411 26.6721C84.2558 26.4374 84.1171 26.2454 83.9251 26.0961C83.7331 25.9361 83.4718 25.8561 83.1411 25.8561C82.8211 25.8561 82.5491 25.9094 82.3251 26.0161C82.1118 26.1227 81.9305 26.2667 81.7811 26.4481C81.6425 26.6294 81.5411 26.8374 81.4771 27.0721C81.4131 27.3067 81.3811 27.5521 81.3811 27.8081V32.0001H79.4611V24.3201Z" fill="white"/>
<path d="M296 21.0001L284 33.0001" stroke="white" stroke-width="1.5" stroke-linecap="round" stroke-linejoin="round"/>
<path d="M284 21.0001L296 33.0001" stroke="white" stroke-width="1.5" stroke-linecap="round" stroke-linejoin="round"/>
<path d="M24 141C24 135.477 28.4772 131 34 131H211C216.523 131 221 135.477 221 141V159C221 164.523 216.523 169 211 169H34C28.4771 169 24 164.523 24 159V141Z" fill="#E0F3F3"/>
<path d="M34.078 144.796H35.287L37.38 152.44H37.406L39.668 144.796H40.89L43.139 152.44H43.165L45.297 144.796H46.441L43.737 154H42.554L40.279 146.2H40.253L37.965 154H36.769L34.078 144.796ZM47.7396 144.172H48.7536V148.761H48.7796C48.8489 148.64 48.9442 148.523 49.0656 148.41C49.1869 148.289 49.3299 148.18 49.4946 148.085C49.6679 147.99 49.8586 147.912 50.0666 147.851C50.2746 147.79 50.4956 147.76 50.7296 147.76C51.1282 147.76 51.4706 147.821 51.7566 147.942C52.0512 148.063 52.2939 148.232 52.4846 148.449C52.6752 148.666 52.8139 148.93 52.9006 149.242C52.9959 149.545 53.0436 149.879 53.0436 150.243V154H52.0296V150.347C52.0296 149.836 51.9169 149.433 51.6916 149.138C51.4662 148.843 51.1152 148.696 50.6386 148.696C50.3092 148.696 50.0232 148.752 49.7806 148.865C49.5466 148.978 49.3516 149.138 49.1956 149.346C49.0482 149.554 48.9356 149.801 48.8576 150.087C48.7882 150.373 48.7536 150.689 48.7536 151.036V154H47.7396V144.172ZM60.6572 152.895C60.2932 153.363 59.8945 153.692 59.4612 153.883C59.0279 154.065 58.5252 154.156 57.9532 154.156C57.4765 154.156 57.0475 154.074 56.6662 153.909C56.2849 153.736 55.9599 153.506 55.6912 153.22C55.4312 152.934 55.2275 152.596 55.0802 152.206C54.9415 151.816 54.8722 151.4 54.8722 150.958C54.8722 150.49 54.9502 150.061 55.1062 149.671C55.2622 149.272 55.4789 148.934 55.7562 148.657C56.0335 148.371 56.3629 148.15 56.7442 147.994C57.1255 147.838 57.5415 147.76 57.9922 147.76C58.4169 147.76 58.8069 147.834 59.1622 147.981C59.5175 148.12 59.8209 148.328 60.0722 148.605C60.3322 148.874 60.5315 149.207 60.6702 149.606C60.8089 149.996 60.8782 150.442 60.8782 150.945V151.27H55.9642C55.9815 151.53 56.0422 151.781 56.1462 152.024C56.2589 152.258 56.4019 152.466 56.5752 152.648C56.7485 152.821 56.9522 152.96 57.1862 153.064C57.4202 153.168 57.6759 153.22 57.9532 153.22C58.3952 153.22 58.7679 153.142 59.0712 152.986C59.3745 152.83 59.6475 152.6 59.8902 152.297L60.6572 152.895ZM59.7862 150.412C59.7689 149.892 59.5999 149.476 59.2792 149.164C58.9585 148.852 58.5165 148.696 57.9532 148.696C57.3899 148.696 56.9349 148.852 56.5882 149.164C56.2415 149.476 56.0335 149.892 55.9642 150.412H59.7862ZM62.7068 149.359C62.7068 149.082 62.6982 148.822 62.6808 148.579C62.6635 148.336 62.6548 148.115 62.6548 147.916H63.6168C63.6168 148.081 63.6212 148.245 63.6298 148.41C63.6385 148.575 63.6428 148.744 63.6428 148.917H63.6688C63.7382 148.77 63.8335 148.627 63.9548 148.488C64.0848 148.349 64.2365 148.228 64.4098 148.124C64.5832 148.011 64.7782 147.925 64.9948 147.864C65.2115 147.795 65.4455 147.76 65.6968 147.76C66.0955 147.76 66.4378 147.821 66.7238 147.942C67.0185 148.063 67.2612 148.232 67.4518 148.449C67.6425 148.666 67.7812 148.93 67.8678 149.242C67.9632 149.545 68.0108 149.879 68.0108 150.243V154H66.9968V150.347C66.9968 149.836 66.8842 149.433 66.6588 149.138C66.4335 148.843 66.0825 148.696 65.6058 148.696C65.2765 148.696 64.9905 148.752 64.7478 148.865C64.5138 148.978 64.3188 149.138 64.1628 149.346C64.0155 149.554 63.9028 149.801 63.8248 150.087C63.7555 150.373 63.7208 150.689 63.7208 151.036V154H62.7068V149.359ZM80.5946 154H79.5936L77.8646 149.32H77.8386L76.3046 154H75.2646L73.2886 147.916H74.4066L75.7976 152.596H75.8236L77.3966 147.916H78.4626L80.0616 152.596H80.0876L81.4656 147.916H82.5576L80.5946 154ZM84.0554 147.916H85.0694V154H84.0554V147.916ZM83.8214 145.537C83.8214 145.338 83.8907 145.164 84.0294 145.017C84.1767 144.87 84.3544 144.796 84.5624 144.796C84.7704 144.796 84.9437 144.87 85.0824 145.017C85.2297 145.164 85.3034 145.338 85.3034 145.537C85.3034 145.754 85.2341 145.931 85.0954 146.07C84.9567 146.209 84.7791 146.278 84.5624 146.278C84.3457 146.278 84.1681 146.209 84.0294 146.07C83.8907 145.931 83.8214 145.754 83.8214 145.537ZM87.4384 144.172H88.4524V154H87.4384V144.172ZM90.8342 144.172H91.8482V154H90.8342V144.172ZM101.332 148.774H99.5384V151.816C99.5384 152.015 99.5427 152.202 99.5514 152.375C99.56 152.54 99.5947 152.687 99.6554 152.817C99.716 152.938 99.807 153.038 99.9284 153.116C100.05 153.185 100.223 153.22 100.448 153.22C100.596 153.22 100.747 153.203 100.903 153.168C101.059 153.133 101.207 153.081 101.345 153.012L101.384 153.935C101.211 154.013 101.016 154.069 100.799 154.104C100.591 154.139 100.392 154.156 100.201 154.156C99.8374 154.156 99.547 154.108 99.3304 154.013C99.1137 153.918 98.9447 153.783 98.8234 153.61C98.702 153.437 98.6197 153.224 98.5764 152.973C98.5417 152.713 98.5244 152.427 98.5244 152.115V148.774H97.1984V147.916H98.5244V146.187H99.5384V147.916H101.332V148.774ZM102.847 144.172H103.861V148.761H103.887C103.957 148.64 104.052 148.523 104.173 148.41C104.295 148.289 104.438 148.18 104.602 148.085C104.776 147.99 104.966 147.912 105.174 147.851C105.382 147.79 105.603 147.76 105.837 147.76C106.236 147.76 106.578 147.821 106.864 147.942C107.159 148.063 107.402 148.232 107.592 148.449C107.783 148.666 107.922 148.93 108.008 149.242C108.104 149.545 108.151 149.879 108.151 150.243V154H107.137V150.347C107.137 149.836 107.025 149.433 106.799 149.138C106.574 148.843 106.223 148.696 105.746 148.696C105.417 148.696 105.131 148.752 104.888 148.865C104.654 148.978 104.459 149.138 104.303 149.346C104.156 149.554 104.043 149.801 103.965 150.087C103.896 150.373 103.861 150.689 103.861 151.036V154H102.847V144.172ZM115.765 152.895C115.401 153.363 115.002 153.692 114.569 153.883C114.136 154.065 113.633 154.156 113.061 154.156C112.584 154.156 112.155 154.074 111.774 153.909C111.393 153.736 111.068 153.506 110.799 153.22C110.539 152.934 110.335 152.596 110.188 152.206C110.049 151.816 109.98 151.4 109.98 150.958C109.98 150.49 110.058 150.061 110.214 149.671C110.37 149.272 110.587 148.934 110.864 148.657C111.141 148.371 111.471 148.15 111.852 147.994C112.233 147.838 112.649 147.76 113.1 147.76C113.525 147.76 113.915 147.834 114.27 147.981C114.625 148.12 114.929 148.328 115.18 148.605C115.44 148.874 115.639 149.207 115.778 149.606C115.917 149.996 115.986 150.442 115.986 150.945V151.27H111.072C111.089 151.53 111.15 151.781 111.254 152.024C111.367 152.258 111.51 152.466 111.683 152.648C111.856 152.821 112.06 152.96 112.294 153.064C112.528 153.168 112.784 153.22 113.061 153.22C113.503 153.22 113.876 153.142 114.179 152.986C114.482 152.83 114.755 152.6 114.998 152.297L115.765 152.895ZM114.894 150.412C114.877 149.892 114.708 149.476 114.387 149.164C114.066 148.852 113.624 148.696 113.061 148.696C112.498 148.696 112.043 148.852 111.696 149.164C111.349 149.476 111.141 149.892 111.072 150.412H114.894ZM127.127 152.895C126.763 153.363 126.364 153.692 125.931 153.883C125.497 154.065 124.995 154.156 124.423 154.156C123.946 154.156 123.517 154.074 123.136 153.909C122.754 153.736 122.429 153.506 122.161 153.22C121.901 152.934 121.697 152.596 121.55 152.206C121.411 151.816 121.342 151.4 121.342 150.958C121.342 150.49 121.42 150.061 121.576 149.671C121.732 149.272 121.948 148.934 122.226 148.657C122.503 148.371 122.832 148.15 123.214 147.994C123.595 147.838 124.011 147.76 124.462 147.76C124.886 147.76 125.276 147.834 125.632 147.981C125.987 148.12 126.29 148.328 126.542 148.605C126.802 148.874 127.001 149.207 127.14 149.606C127.278 149.996 127.348 150.442 127.348 150.945V151.27H122.434C122.451 151.53 122.512 151.781 122.616 152.024C122.728 152.258 122.871 152.466 123.045 152.648C123.218 152.821 123.422 152.96 123.656 153.064C123.89 153.168 124.145 153.22 124.423 153.22C124.865 153.22 125.237 153.142 125.541 152.986C125.844 152.83 126.117 152.6 126.36 152.297L127.127 152.895ZM126.256 150.412C126.238 149.892 126.069 149.476 125.749 149.164C125.428 148.852 124.986 148.696 124.423 148.696C123.859 148.696 123.404 148.852 123.058 149.164C122.711 149.476 122.503 149.892 122.434 150.412H126.256ZM131.945 154H130.827L128.344 147.916H129.527L131.425 152.687H131.451L133.258 147.916H134.35L131.945 154ZM141.142 152.895C140.778 153.363 140.379 153.692 139.946 153.883C139.513 154.065 139.01 154.156 138.438 154.156C137.961 154.156 137.532 154.074 137.151 153.909C136.77 153.736 136.445 153.506 136.176 153.22C135.916 152.934 135.712 152.596 135.565 152.206C135.426 151.816 135.357 151.4 135.357 150.958C135.357 150.49 135.435 150.061 135.591 149.671C135.747 149.272 135.964 148.934 136.241 148.657C136.518 148.371 136.848 148.15 137.229 147.994C137.61 147.838 138.026 147.76 138.477 147.76C138.902 147.76 139.292 147.834 139.647 147.981C140.002 148.12 140.306 148.328 140.557 148.605C140.817 148.874 141.016 149.207 141.155 149.606C141.294 149.996 141.363 150.442 141.363 150.945V151.27H136.449C136.466 151.53 136.527 151.781 136.631 152.024C136.744 152.258 136.887 152.466 137.06 152.648C137.233 152.821 137.437 152.96 137.671 153.064C137.905 153.168 138.161 153.22 138.438 153.22C138.88 153.22 139.253 153.142 139.556 152.986C139.859 152.83 140.132 152.6 140.375 152.297L141.142 152.895ZM140.271 150.412C140.254 149.892 140.085 149.476 139.764 149.164C139.443 148.852 139.001 148.696 138.438 148.696C137.875 148.696 137.42 148.852 137.073 149.164C136.726 149.476 136.518 149.892 136.449 150.412H140.271ZM143.192 149.359C143.192 149.082 143.183 148.822 143.166 148.579C143.148 148.336 143.14 148.115 143.14 147.916H144.102C144.102 148.081 144.106 148.245 144.115 148.41C144.123 148.575 144.128 148.744 144.128 148.917H144.154C144.223 148.77 144.318 148.627 144.44 148.488C144.57 148.349 144.721 148.228 144.895 148.124C145.068 148.011 145.263 147.925 145.48 147.864C145.696 147.795 145.93 147.76 146.182 147.76C146.58 147.76 146.923 147.821 147.209 147.942C147.503 148.063 147.746 148.232 147.937 148.449C148.127 148.666 148.266 148.93 148.353 149.242C148.448 149.545 148.496 149.879 148.496 150.243V154H147.482V150.347C147.482 149.836 147.369 149.433 147.144 149.138C146.918 148.843 146.567 148.696 146.091 148.696C145.761 148.696 145.475 148.752 145.233 148.865C144.999 148.978 144.804 149.138 144.648 149.346C144.5 149.554 144.388 149.801 144.31 150.087C144.24 150.373 144.206 150.689 144.206 151.036V154H143.192V149.359ZM154.003 148.774H152.209V151.816C152.209 152.015 152.214 152.202 152.222 152.375C152.231 152.54 152.266 152.687 152.326 152.817C152.387 152.938 152.478 153.038 152.599 153.116C152.721 153.185 152.894 153.22 153.119 153.22C153.267 153.22 153.418 153.203 153.574 153.168C153.73 153.133 153.878 153.081 154.016 153.012L154.055 153.935C153.882 154.013 153.687 154.069 153.47 154.104C153.262 154.139 153.063 154.156 152.872 154.156C152.508 154.156 152.218 154.108 152.001 154.013C151.785 153.918 151.616 153.783 151.494 153.61C151.373 153.437 151.291 153.224 151.247 152.973C151.213 152.713 151.195 152.427 151.195 152.115V148.774H149.869V147.916H151.195V146.187H152.209V147.916H154.003V148.774ZM159.332 144.172H160.346V148.8H160.372C160.649 148.471 160.97 148.215 161.334 148.033C161.706 147.851 162.114 147.76 162.556 147.76C163.032 147.76 163.466 147.842 163.856 148.007C164.254 148.163 164.592 148.384 164.87 148.67C165.147 148.956 165.364 149.294 165.52 149.684C165.676 150.074 165.754 150.499 165.754 150.958C165.754 151.417 165.676 151.842 165.52 152.232C165.364 152.622 165.147 152.96 164.87 153.246C164.601 153.532 164.28 153.757 163.908 153.922C163.535 154.078 163.136 154.156 162.712 154.156C162.166 154.156 161.685 154.039 161.269 153.805C160.861 153.562 160.562 153.268 160.372 152.921H160.346V154H159.332V144.172ZM160.346 150.958C160.346 151.279 160.393 151.578 160.489 151.855C160.593 152.124 160.74 152.362 160.931 152.57C161.121 152.769 161.347 152.93 161.607 153.051C161.875 153.164 162.174 153.22 162.504 153.22C162.833 153.22 163.128 153.164 163.388 153.051C163.656 152.93 163.886 152.769 164.077 152.57C164.267 152.362 164.41 152.124 164.506 151.855C164.61 151.578 164.662 151.279 164.662 150.958C164.662 150.637 164.61 150.343 164.506 150.074C164.41 149.797 164.267 149.558 164.077 149.359C163.886 149.151 163.656 148.991 163.388 148.878C163.128 148.757 162.833 148.696 162.504 148.696C162.174 148.696 161.875 148.757 161.607 148.878C161.347 148.991 161.121 149.151 160.931 149.359C160.74 149.558 160.593 149.797 160.489 150.074C160.393 150.343 160.346 150.637 160.346 150.958ZM173.025 152.895C172.661 153.363 172.262 153.692 171.829 153.883C171.396 154.065 170.893 154.156 170.321 154.156C169.844 154.156 169.415 154.074 169.034 153.909C168.653 153.736 168.328 153.506 168.059 153.22C167.799 152.934 167.595 152.596 167.448 152.206C167.309 151.816 167.24 151.4 167.24 150.958C167.24 150.49 167.318 150.061 167.474 149.671C167.63 149.272 167.847 148.934 168.124 148.657C168.401 148.371 168.731 148.15 169.112 147.994C169.493 147.838 169.909 147.76 170.36 147.76C170.785 147.76 171.175 147.834 171.53 147.981C171.885 148.12 172.189 148.328 172.44 148.605C172.7 148.874 172.899 149.207 173.038 149.606C173.177 149.996 173.246 150.442 173.246 150.945V151.27H168.332C168.349 151.53 168.41 151.781 168.514 152.024C168.627 152.258 168.77 152.466 168.943 152.648C169.116 152.821 169.32 152.96 169.554 153.064C169.788 153.168 170.044 153.22 170.321 153.22C170.763 153.22 171.136 153.142 171.439 152.986C171.742 152.83 172.015 152.6 172.258 152.297L173.025 152.895ZM172.154 150.412C172.137 149.892 171.968 149.476 171.647 149.164C171.326 148.852 170.884 148.696 170.321 148.696C169.758 148.696 169.303 148.852 168.956 149.164C168.609 149.476 168.401 149.892 168.332 150.412H172.154ZM178.953 144.172H179.967V148.761H179.993C180.062 148.64 180.157 148.523 180.279 148.41C180.4 148.289 180.543 148.18 180.708 148.085C180.881 147.99 181.072 147.912 181.28 147.851C181.488 147.79 181.709 147.76 181.943 147.76C182.341 147.76 182.684 147.821 182.97 147.942C183.264 148.063 183.507 148.232 183.698 148.449C183.888 148.666 184.027 148.93 184.114 149.242C184.209 149.545 184.257 149.879 184.257 150.243V154H183.243V150.347C183.243 149.836 183.13 149.433 182.905 149.138C182.679 148.843 182.328 148.696 181.852 148.696C181.522 148.696 181.236 148.752 180.994 148.865C180.76 148.978 180.565 149.138 180.409 149.346C180.261 149.554 180.149 149.801 180.071 150.087C180.001 150.373 179.967 150.689 179.967 151.036V154H178.953V144.172ZM191.87 152.895C191.506 153.363 191.108 153.692 190.674 153.883C190.241 154.065 189.738 154.156 189.166 154.156C188.69 154.156 188.261 154.074 187.879 153.909C187.498 153.736 187.173 153.506 186.904 153.22C186.644 152.934 186.441 152.596 186.293 152.206C186.155 151.816 186.085 151.4 186.085 150.958C186.085 150.49 186.163 150.061 186.319 149.671C186.475 149.272 186.692 148.934 186.969 148.657C187.247 148.371 187.576 148.15 187.957 147.994C188.339 147.838 188.755 147.76 189.205 147.76C189.63 147.76 190.02 147.834 190.375 147.981C190.731 148.12 191.034 148.328 191.285 148.605C191.545 148.874 191.745 149.207 191.883 149.606C192.022 149.996 192.091 150.442 192.091 150.945V151.27H187.177C187.195 151.53 187.255 151.781 187.359 152.024C187.472 152.258 187.615 152.466 187.788 152.648C187.962 152.821 188.165 152.96 188.399 153.064C188.633 153.168 188.889 153.22 189.166 153.22C189.608 153.22 189.981 153.142 190.284 152.986C190.588 152.83 190.861 152.6 191.103 152.297L191.87 152.895ZM190.999 150.412C190.982 149.892 190.813 149.476 190.492 149.164C190.172 148.852 189.73 148.696 189.166 148.696C188.603 148.696 188.148 148.852 187.801 149.164C187.455 149.476 187.247 149.892 187.177 150.412H190.999ZM194.011 144.172H195.025V154H194.011V144.172ZM202.36 152.921H202.334C202.143 153.268 201.84 153.562 201.424 153.805C201.017 154.039 200.54 154.156 199.994 154.156C199.569 154.156 199.171 154.078 198.798 153.922C198.425 153.757 198.1 153.532 197.823 153.246C197.554 152.96 197.342 152.622 197.186 152.232C197.03 151.842 196.952 151.417 196.952 150.958C196.952 150.499 197.03 150.074 197.186 149.684C197.342 149.294 197.559 148.956 197.836 148.67C198.113 148.384 198.447 148.163 198.837 148.007C199.236 147.842 199.673 147.76 200.15 147.76C200.592 147.76 200.995 147.851 201.359 148.033C201.732 148.215 202.057 148.471 202.334 148.8H202.36V144.172H203.374V154H202.36V152.921ZM202.36 150.958C202.36 150.637 202.308 150.343 202.204 150.074C202.109 149.797 201.966 149.558 201.775 149.359C201.584 149.151 201.355 148.991 201.086 148.878C200.826 148.757 200.531 148.696 200.202 148.696C199.873 148.696 199.574 148.757 199.305 148.878C199.045 148.991 198.82 149.151 198.629 149.359C198.438 149.558 198.291 149.797 198.187 150.074C198.092 150.343 198.044 150.637 198.044 150.958C198.044 151.279 198.092 151.578 198.187 151.855C198.291 152.124 198.438 152.362 198.629 152.57C198.82 152.769 199.045 152.93 199.305 153.051C199.574 153.164 199.873 153.22 200.202 153.22C200.531 153.22 200.826 153.164 201.086 153.051C201.355 152.93 201.584 152.769 201.775 152.57C201.966 152.362 202.109 152.124 202.204 151.855C202.308 151.578 202.36 151.279 202.36 150.958ZM207.018 150.607C207.018 150.364 207.031 150.165 207.057 150.009C207.092 149.853 207.144 149.714 207.213 149.593C207.282 149.463 207.373 149.337 207.486 149.216C207.599 149.095 207.742 148.947 207.915 148.774C208.045 148.635 208.175 148.501 208.305 148.371C208.444 148.232 208.565 148.089 208.669 147.942C208.782 147.795 208.873 147.639 208.942 147.474C209.011 147.309 209.046 147.123 209.046 146.915C209.046 146.499 208.925 146.161 208.682 145.901C208.439 145.632 208.101 145.498 207.668 145.498C207.226 145.498 206.866 145.628 206.589 145.888C206.32 146.148 206.151 146.49 206.082 146.915L204.912 146.785C204.973 146.43 205.081 146.113 205.237 145.836C205.402 145.559 205.605 145.329 205.848 145.147C206.091 144.956 206.368 144.813 206.68 144.718C206.992 144.614 207.326 144.562 207.681 144.562C208.036 144.562 208.366 144.614 208.669 144.718C208.981 144.813 209.25 144.961 209.475 145.16C209.709 145.351 209.891 145.593 210.021 145.888C210.151 146.174 210.216 146.503 210.216 146.876C210.216 147.162 210.173 147.422 210.086 147.656C210.008 147.881 209.9 148.094 209.761 148.293C209.631 148.484 209.475 148.67 209.293 148.852C209.111 149.025 208.925 149.203 208.734 149.385C208.595 149.515 208.483 149.628 208.396 149.723C208.318 149.818 208.257 149.918 208.214 150.022C208.171 150.126 208.14 150.243 208.123 150.373C208.114 150.494 208.11 150.646 208.11 150.828V151.426H207.018V150.607ZM207.564 152.518C207.781 152.518 207.963 152.596 208.11 152.752C208.266 152.899 208.344 153.081 208.344 153.298C208.344 153.515 208.262 153.701 208.097 153.857C207.941 154.004 207.763 154.078 207.564 154.078C207.365 154.078 207.183 154.004 207.018 153.857C206.862 153.701 206.784 153.515 206.784 153.298C206.784 153.081 206.858 152.899 207.005 152.752C207.161 152.596 207.347 152.518 207.564 152.518Z" fill="#5DC2C4"/>
<path d="M235.68 164H234.588V156.2H234.562L232.911 157.591L232.261 156.798L234.731 154.796H235.68V164ZM238.978 159.398C238.978 158.878 239.021 158.336 239.108 157.773C239.194 157.21 239.355 156.698 239.589 156.239C239.823 155.771 240.139 155.39 240.538 155.095C240.945 154.792 241.465 154.64 242.098 154.64C242.73 154.64 243.246 154.792 243.645 155.095C244.052 155.39 244.373 155.771 244.607 156.239C244.841 156.698 245.001 157.21 245.088 157.773C245.174 158.336 245.218 158.878 245.218 159.398C245.218 159.918 245.174 160.46 245.088 161.023C245.001 161.586 244.841 162.102 244.607 162.57C244.373 163.029 244.052 163.411 243.645 163.714C243.246 164.009 242.73 164.156 242.098 164.156C241.465 164.156 240.945 164.009 240.538 163.714C240.139 163.411 239.823 163.029 239.589 162.57C239.355 162.102 239.194 161.586 239.108 161.023C239.021 160.46 238.978 159.918 238.978 159.398ZM240.07 159.398C240.07 159.623 240.078 159.875 240.096 160.152C240.113 160.429 240.143 160.711 240.187 160.997C240.239 161.274 240.308 161.547 240.395 161.816C240.49 162.085 240.611 162.323 240.759 162.531C240.915 162.739 241.101 162.908 241.318 163.038C241.534 163.159 241.794 163.22 242.098 163.22C242.401 163.22 242.661 163.159 242.878 163.038C243.094 162.908 243.276 162.739 243.424 162.531C243.58 162.323 243.701 162.085 243.788 161.816C243.883 161.547 243.952 161.274 243.996 160.997C244.048 160.711 244.082 160.429 244.1 160.152C244.117 159.875 244.126 159.623 244.126 159.398C244.126 159.173 244.117 158.921 244.1 158.644C244.082 158.367 244.048 158.089 243.996 157.812C243.952 157.526 243.883 157.249 243.788 156.98C243.701 156.711 243.58 156.473 243.424 156.265C243.276 156.057 243.094 155.892 242.878 155.771C242.661 155.641 242.401 155.576 242.098 155.576C241.794 155.576 241.534 155.641 241.318 155.771C241.101 155.892 240.915 156.057 240.759 156.265C240.611 156.473 240.49 156.711 240.395 156.98C240.308 157.249 240.239 157.526 240.187 157.812C240.143 158.089 240.113 158.367 240.096 158.644C240.078 158.921 240.07 159.173 240.07 159.398ZM247.774 157.76C247.991 157.76 248.173 157.838 248.32 157.994C248.476 158.141 248.554 158.323 248.554 158.54C248.554 158.757 248.472 158.943 248.307 159.099C248.151 159.246 247.974 159.32 247.774 159.32C247.575 159.32 247.393 159.246 247.228 159.099C247.072 158.943 246.994 158.757 246.994 158.54C246.994 158.323 247.068 158.141 247.215 157.994C247.371 157.838 247.558 157.76 247.774 157.76ZM247.774 162.518C247.991 162.518 248.173 162.596 248.32 162.752C248.476 162.899 248.554 163.081 248.554 163.298C248.554 163.515 248.472 163.701 248.307 163.857C248.151 164.004 247.974 164.078 247.774 164.078C247.575 164.078 247.393 164.004 247.228 163.857C247.072 163.701 246.994 163.515 246.994 163.298C246.994 163.081 247.068 162.899 247.215 162.752C247.371 162.596 247.558 162.518 247.774 162.518ZM250.495 162.752L253.966 159.372C254.183 159.164 254.374 158.973 254.538 158.8C254.703 158.618 254.837 158.445 254.941 158.28C255.054 158.107 255.136 157.929 255.188 157.747C255.24 157.565 255.266 157.361 255.266 157.136C255.266 156.893 255.223 156.677 255.136 156.486C255.05 156.295 254.928 156.135 254.772 156.005C254.625 155.866 254.447 155.762 254.239 155.693C254.04 155.615 253.823 155.576 253.589 155.576C253.121 155.576 252.736 155.71 252.432 155.979C252.129 156.248 251.934 156.603 251.847 157.045L250.664 156.941C250.725 156.568 250.838 156.239 251.002 155.953C251.176 155.658 251.388 155.416 251.639 155.225C251.899 155.034 252.19 154.891 252.51 154.796C252.831 154.692 253.178 154.64 253.55 154.64C253.932 154.64 254.291 154.696 254.629 154.809C254.967 154.913 255.262 155.069 255.513 155.277C255.773 155.485 255.977 155.745 256.124 156.057C256.28 156.369 256.358 156.729 256.358 157.136C256.358 157.5 256.306 157.829 256.202 158.124C256.107 158.419 255.973 158.692 255.799 158.943C255.635 159.186 255.444 159.42 255.227 159.645C255.019 159.862 254.798 160.078 254.564 160.295L251.73 162.96V162.986H256.423V164H250.495V162.752ZM257.979 162.752L261.45 159.372C261.667 159.164 261.857 158.973 262.022 158.8C262.187 158.618 262.321 158.445 262.425 158.28C262.538 158.107 262.62 157.929 262.672 157.747C262.724 157.565 262.75 157.361 262.75 157.136C262.75 156.893 262.707 156.677 262.62 156.486C262.533 156.295 262.412 156.135 262.256 156.005C262.109 155.866 261.931 155.762 261.723 155.693C261.524 155.615 261.307 155.576 261.073 155.576C260.605 155.576 260.219 155.71 259.916 155.979C259.613 156.248 259.418 156.603 259.331 157.045L258.148 156.941C258.209 156.568 258.321 156.239 258.486 155.953C258.659 155.658 258.872 155.416 259.123 155.225C259.383 155.034 259.673 154.891 259.994 154.796C260.315 154.692 260.661 154.64 261.034 154.64C261.415 154.64 261.775 154.696 262.113 154.809C262.451 154.913 262.746 155.069 262.997 155.277C263.257 155.485 263.461 155.745 263.608 156.057C263.764 156.369 263.842 156.729 263.842 157.136C263.842 157.5 263.79 157.829 263.686 158.124C263.591 158.419 263.456 158.692 263.283 158.943C263.118 159.186 262.928 159.42 262.711 159.645C262.503 159.862 262.282 160.078 262.048 160.295L259.214 162.96V162.986H263.907V164H257.979V162.752ZM269.575 158.696C269.887 158.375 270.255 158.141 270.68 157.994C271.113 157.838 271.551 157.76 271.993 157.76C272.894 157.76 273.544 157.972 273.943 158.397C274.342 158.822 274.541 159.467 274.541 160.334V162.947C274.541 163.12 274.55 163.302 274.567 163.493C274.584 163.675 274.606 163.844 274.632 164H273.657C273.622 163.861 273.601 163.71 273.592 163.545C273.592 163.372 273.592 163.22 273.592 163.09H273.566C273.367 163.402 273.098 163.658 272.76 163.857C272.431 164.056 272.032 164.156 271.564 164.156C271.252 164.156 270.957 164.117 270.68 164.039C270.411 163.961 270.173 163.848 269.965 163.701C269.766 163.545 269.605 163.354 269.484 163.129C269.363 162.904 269.302 162.644 269.302 162.349C269.302 161.846 269.432 161.452 269.692 161.166C269.952 160.88 270.273 160.668 270.654 160.529C271.044 160.39 271.46 160.304 271.902 160.269C272.353 160.234 272.764 160.217 273.137 160.217H273.527V160.035C273.527 159.593 273.393 159.259 273.124 159.034C272.864 158.809 272.496 158.696 272.019 158.696C271.69 158.696 271.365 158.752 271.044 158.865C270.732 158.969 270.455 159.134 270.212 159.359L269.575 158.696ZM272.513 161.075C271.863 161.075 271.347 161.166 270.966 161.348C270.585 161.53 270.394 161.829 270.394 162.245C270.394 162.626 270.52 162.899 270.771 163.064C271.031 163.22 271.352 163.298 271.733 163.298C272.028 163.298 272.283 163.25 272.5 163.155C272.725 163.051 272.912 162.917 273.059 162.752C273.206 162.587 273.319 162.397 273.397 162.18C273.475 161.955 273.518 161.716 273.527 161.465V161.075H272.513ZM276.654 159.359C276.654 159.082 276.645 158.822 276.628 158.579C276.611 158.336 276.602 158.115 276.602 157.916H277.564C277.564 158.081 277.568 158.245 277.577 158.41C277.586 158.575 277.59 158.744 277.59 158.917H277.616C277.685 158.77 277.781 158.627 277.902 158.488C278.032 158.349 278.184 158.228 278.357 158.124C278.53 158.011 278.725 157.925 278.942 157.864C279.159 157.795 279.393 157.76 279.644 157.76C279.973 157.76 280.246 157.803 280.463 157.89C280.688 157.968 280.875 158.068 281.022 158.189C281.169 158.302 281.282 158.427 281.36 158.566C281.447 158.696 281.516 158.813 281.568 158.917C281.793 158.553 282.053 158.271 282.348 158.072C282.643 157.864 283.024 157.76 283.492 157.76C283.925 157.76 284.289 157.821 284.584 157.942C284.879 158.055 285.117 158.224 285.299 158.449C285.481 158.666 285.611 158.934 285.689 159.255C285.767 159.567 285.806 159.918 285.806 160.308V164H284.792V160.36C284.792 160.152 284.77 159.948 284.727 159.749C284.684 159.55 284.606 159.372 284.493 159.216C284.38 159.06 284.229 158.934 284.038 158.839C283.847 158.744 283.605 158.696 283.31 158.696C283.093 158.696 282.89 158.739 282.699 158.826C282.508 158.913 282.339 159.034 282.192 159.19C282.053 159.346 281.941 159.537 281.854 159.762C281.776 159.979 281.737 160.221 281.737 160.49V164H280.723V160.555C280.723 159.879 280.632 159.402 280.45 159.125C280.268 158.839 279.969 158.696 279.553 158.696C279.224 158.696 278.938 158.752 278.695 158.865C278.461 158.978 278.266 159.138 278.11 159.346C277.963 159.554 277.85 159.801 277.772 160.087C277.703 160.373 277.668 160.689 277.668 161.036V164H276.654V159.359Z" fill="#8695A0"/>
<path d="M158 195C158 189.477 162.477 185 168 185H286C291.523 185 296 189.477 296 195V213C296 218.523 291.523 223 286 223H168C162.477 223 158 218.523 158 213V195Z" fill="#5DC2C4"/>
<path d="M175.72 199.81H172.678V208H171.586V199.81H168.544V198.796H175.72V199.81ZM175.289 204.958C175.289 204.481 175.372 204.048 175.536 203.658C175.701 203.268 175.926 202.934 176.212 202.657C176.498 202.371 176.841 202.15 177.239 201.994C177.638 201.838 178.071 201.76 178.539 201.76C179.007 201.76 179.441 201.838 179.839 201.994C180.238 202.15 180.58 202.371 180.866 202.657C181.152 202.934 181.378 203.268 181.542 203.658C181.707 204.048 181.789 204.481 181.789 204.958C181.789 205.435 181.707 205.868 181.542 206.258C181.378 206.648 181.152 206.986 180.866 207.272C180.58 207.549 180.238 207.766 179.839 207.922C179.441 208.078 179.007 208.156 178.539 208.156C178.071 208.156 177.638 208.078 177.239 207.922C176.841 207.766 176.498 207.549 176.212 207.272C175.926 206.986 175.701 206.648 175.536 206.258C175.372 205.868 175.289 205.435 175.289 204.958ZM176.381 204.958C176.381 205.279 176.429 205.578 176.524 205.855C176.628 206.124 176.776 206.362 176.966 206.57C177.157 206.769 177.382 206.93 177.642 207.051C177.911 207.164 178.21 207.22 178.539 207.22C178.869 207.22 179.163 207.164 179.423 207.051C179.692 206.93 179.922 206.769 180.112 206.57C180.303 206.362 180.446 206.124 180.541 205.855C180.645 205.578 180.697 205.279 180.697 204.958C180.697 204.637 180.645 204.343 180.541 204.074C180.446 203.797 180.303 203.558 180.112 203.359C179.922 203.151 179.692 202.991 179.423 202.878C179.163 202.757 178.869 202.696 178.539 202.696C178.21 202.696 177.911 202.757 177.642 202.878C177.382 202.991 177.157 203.151 176.966 203.359C176.776 203.558 176.628 203.797 176.524 204.074C176.429 204.343 176.381 204.637 176.381 204.958ZM183.619 203.359C183.619 203.082 183.61 202.822 183.593 202.579C183.576 202.336 183.567 202.115 183.567 201.916H184.529C184.529 202.081 184.533 202.245 184.542 202.41C184.551 202.575 184.555 202.744 184.555 202.917H184.581C184.65 202.77 184.746 202.627 184.867 202.488C184.997 202.349 185.149 202.228 185.322 202.124C185.495 202.011 185.69 201.925 185.907 201.864C186.124 201.795 186.358 201.76 186.609 201.76C186.938 201.76 187.211 201.803 187.428 201.89C187.653 201.968 187.84 202.068 187.987 202.189C188.134 202.302 188.247 202.427 188.325 202.566C188.412 202.696 188.481 202.813 188.533 202.917C188.758 202.553 189.018 202.271 189.313 202.072C189.608 201.864 189.989 201.76 190.457 201.76C190.89 201.76 191.254 201.821 191.549 201.942C191.844 202.055 192.082 202.224 192.264 202.449C192.446 202.666 192.576 202.934 192.654 203.255C192.732 203.567 192.771 203.918 192.771 204.308V208H191.757V204.36C191.757 204.152 191.735 203.948 191.692 203.749C191.649 203.55 191.571 203.372 191.458 203.216C191.345 203.06 191.194 202.934 191.003 202.839C190.812 202.744 190.57 202.696 190.275 202.696C190.058 202.696 189.855 202.739 189.664 202.826C189.473 202.913 189.304 203.034 189.157 203.19C189.018 203.346 188.906 203.537 188.819 203.762C188.741 203.979 188.702 204.221 188.702 204.49V208H187.688V204.555C187.688 203.879 187.597 203.402 187.415 203.125C187.233 202.839 186.934 202.696 186.518 202.696C186.189 202.696 185.903 202.752 185.66 202.865C185.426 202.978 185.231 203.138 185.075 203.346C184.928 203.554 184.815 203.801 184.737 204.087C184.668 204.373 184.633 204.689 184.633 205.036V208H183.619V203.359ZM194.949 203.359C194.949 203.082 194.941 202.822 194.923 202.579C194.906 202.336 194.897 202.115 194.897 201.916H195.859C195.859 202.081 195.864 202.245 195.872 202.41C195.881 202.575 195.885 202.744 195.885 202.917H195.911C195.981 202.77 196.076 202.627 196.197 202.488C196.327 202.349 196.479 202.228 196.652 202.124C196.826 202.011 197.021 201.925 197.237 201.864C197.454 201.795 197.688 201.76 197.939 201.76C198.269 201.76 198.542 201.803 198.758 201.89C198.984 201.968 199.17 202.068 199.317 202.189C199.465 202.302 199.577 202.427 199.655 202.566C199.742 202.696 199.811 202.813 199.863 202.917C200.089 202.553 200.349 202.271 200.643 202.072C200.938 201.864 201.319 201.76 201.787 201.76C202.221 201.76 202.585 201.821 202.879 201.942C203.174 202.055 203.412 202.224 203.594 202.449C203.776 202.666 203.906 202.934 203.984 203.255C204.062 203.567 204.101 203.918 204.101 204.308V208H203.087V204.36C203.087 204.152 203.066 203.948 203.022 203.749C202.979 203.55 202.901 203.372 202.788 203.216C202.676 203.06 202.524 202.934 202.333 202.839C202.143 202.744 201.9 202.696 201.605 202.696C201.389 202.696 201.185 202.739 200.994 202.826C200.804 202.913 200.635 203.034 200.487 203.19C200.349 203.346 200.236 203.537 200.149 203.762C200.071 203.979 200.032 204.221 200.032 204.49V208H199.018V204.555C199.018 203.879 198.927 203.402 198.745 203.125C198.563 202.839 198.264 202.696 197.848 202.696C197.519 202.696 197.233 202.752 196.99 202.865C196.756 202.978 196.561 203.138 196.405 203.346C196.258 203.554 196.145 203.801 196.067 204.087C195.998 204.373 195.963 204.689 195.963 205.036V208H194.949V203.359ZM205.929 204.958C205.929 204.481 206.011 204.048 206.176 203.658C206.34 203.268 206.566 202.934 206.852 202.657C207.138 202.371 207.48 202.15 207.879 201.994C208.277 201.838 208.711 201.76 209.179 201.76C209.647 201.76 210.08 201.838 210.479 201.994C210.877 202.15 211.22 202.371 211.506 202.657C211.792 202.934 212.017 203.268 212.182 203.658C212.346 204.048 212.429 204.481 212.429 204.958C212.429 205.435 212.346 205.868 212.182 206.258C212.017 206.648 211.792 206.986 211.506 207.272C211.22 207.549 210.877 207.766 210.479 207.922C210.08 208.078 209.647 208.156 209.179 208.156C208.711 208.156 208.277 208.078 207.879 207.922C207.48 207.766 207.138 207.549 206.852 207.272C206.566 206.986 206.34 206.648 206.176 206.258C206.011 205.868 205.929 205.435 205.929 204.958ZM207.021 204.958C207.021 205.279 207.068 205.578 207.164 205.855C207.268 206.124 207.415 206.362 207.606 206.57C207.796 206.769 208.022 206.93 208.282 207.051C208.55 207.164 208.849 207.22 209.179 207.22C209.508 207.22 209.803 207.164 210.063 207.051C210.331 206.93 210.561 206.769 210.752 206.57C210.942 206.362 211.085 206.124 211.181 205.855C211.285 205.578 211.337 205.279 211.337 204.958C211.337 204.637 211.285 204.343 211.181 204.074C211.085 203.797 210.942 203.558 210.752 203.359C210.561 203.151 210.331 202.991 210.063 202.878C209.803 202.757 209.508 202.696 209.179 202.696C208.849 202.696 208.55 202.757 208.282 202.878C208.022 202.991 207.796 203.151 207.606 203.359C207.415 203.558 207.268 203.797 207.164 204.074C207.068 204.343 207.021 204.637 207.021 204.958ZM214.258 203.359C214.258 203.082 214.25 202.822 214.232 202.579C214.215 202.336 214.206 202.115 214.206 201.916H215.168C215.168 202.081 215.173 202.245 215.181 202.41C215.19 202.575 215.194 202.744 215.194 202.917H215.22C215.29 202.77 215.385 202.627 215.506 202.488C215.636 202.349 215.788 202.228 215.961 202.124C216.135 202.011 216.33 201.925 216.546 201.864C216.763 201.795 216.997 201.76 217.248 201.76C217.318 201.76 217.387 201.764 217.456 201.773C217.526 201.782 217.595 201.799 217.664 201.825L217.599 202.852C217.426 202.8 217.244 202.774 217.053 202.774C216.429 202.774 215.974 202.978 215.688 203.385C215.411 203.784 215.272 204.334 215.272 205.036V208H214.258V203.359ZM218.509 204.958C218.509 204.481 218.592 204.048 218.756 203.658C218.921 203.268 219.146 202.934 219.432 202.657C219.718 202.371 220.061 202.15 220.459 201.994C220.858 201.838 221.291 201.76 221.759 201.76C222.227 201.76 222.661 201.838 223.059 201.994C223.458 202.15 223.8 202.371 224.086 202.657C224.372 202.934 224.598 203.268 224.762 203.658C224.927 204.048 225.009 204.481 225.009 204.958C225.009 205.435 224.927 205.868 224.762 206.258C224.598 206.648 224.372 206.986 224.086 207.272C223.8 207.549 223.458 207.766 223.059 207.922C222.661 208.078 222.227 208.156 221.759 208.156C221.291 208.156 220.858 208.078 220.459 207.922C220.061 207.766 219.718 207.549 219.432 207.272C219.146 206.986 218.921 206.648 218.756 206.258C218.592 205.868 218.509 205.435 218.509 204.958ZM219.601 204.958C219.601 205.279 219.649 205.578 219.744 205.855C219.848 206.124 219.996 206.362 220.186 206.57C220.377 206.769 220.602 206.93 220.862 207.051C221.131 207.164 221.43 207.22 221.759 207.22C222.089 207.22 222.383 207.164 222.643 207.051C222.912 206.93 223.142 206.769 223.332 206.57C223.523 206.362 223.666 206.124 223.761 205.855C223.865 205.578 223.917 205.279 223.917 204.958C223.917 204.637 223.865 204.343 223.761 204.074C223.666 203.797 223.523 203.558 223.332 203.359C223.142 203.151 222.912 202.991 222.643 202.878C222.383 202.757 222.089 202.696 221.759 202.696C221.43 202.696 221.131 202.757 220.862 202.878C220.602 202.991 220.377 203.151 220.186 203.359C219.996 203.558 219.848 203.797 219.744 204.074C219.649 204.343 219.601 204.637 219.601 204.958ZM233.365 208H232.364L230.635 203.32H230.609L229.075 208H228.035L226.059 201.916H227.177L228.568 206.596H228.594L230.167 201.916H231.233L232.832 206.596H232.858L234.236 201.916H235.328L233.365 208ZM240.535 202.696C240.847 202.375 241.215 202.141 241.64 201.994C242.073 201.838 242.511 201.76 242.953 201.76C243.854 201.76 244.504 201.972 244.903 202.397C245.302 202.822 245.501 203.467 245.501 204.334V206.947C245.501 207.12 245.51 207.302 245.527 207.493C245.544 207.675 245.566 207.844 245.592 208H244.617C244.582 207.861 244.561 207.71 244.552 207.545C244.552 207.372 244.552 207.22 244.552 207.09H244.526C244.327 207.402 244.058 207.658 243.72 207.857C243.391 208.056 242.992 208.156 242.524 208.156C242.212 208.156 241.917 208.117 241.64 208.039C241.371 207.961 241.133 207.848 240.925 207.701C240.726 207.545 240.565 207.354 240.444 207.129C240.323 206.904 240.262 206.644 240.262 206.349C240.262 205.846 240.392 205.452 240.652 205.166C240.912 204.88 241.233 204.668 241.614 204.529C242.004 204.39 242.42 204.304 242.862 204.269C243.313 204.234 243.724 204.217 244.097 204.217H244.487V204.035C244.487 203.593 244.353 203.259 244.084 203.034C243.824 202.809 243.456 202.696 242.979 202.696C242.65 202.696 242.325 202.752 242.004 202.865C241.692 202.969 241.415 203.134 241.172 203.359L240.535 202.696ZM243.473 205.075C242.823 205.075 242.307 205.166 241.926 205.348C241.545 205.53 241.354 205.829 241.354 206.245C241.354 206.626 241.48 206.899 241.731 207.064C241.991 207.22 242.312 207.298 242.693 207.298C242.988 207.298 243.243 207.25 243.46 207.155C243.685 207.051 243.872 206.917 244.019 206.752C244.166 206.587 244.279 206.397 244.357 206.18C244.435 205.955 244.478 205.716 244.487 205.465V205.075H243.473ZM250.942 202.774H249.148V205.816C249.148 206.015 249.152 206.202 249.161 206.375C249.17 206.54 249.204 206.687 249.265 206.817C249.326 206.938 249.417 207.038 249.538 207.116C249.659 207.185 249.833 207.22 250.058 207.22C250.205 207.22 250.357 207.203 250.513 207.168C250.669 207.133 250.816 207.081 250.955 207.012L250.994 207.935C250.821 208.013 250.626 208.069 250.409 208.104C250.201 208.139 250.002 208.156 249.811 208.156C249.447 208.156 249.157 208.108 248.94 208.013C248.723 207.918 248.554 207.783 248.433 207.61C248.312 207.437 248.229 207.224 248.186 206.973C248.151 206.713 248.134 206.427 248.134 206.115V202.774H246.808V201.916H248.134V200.187H249.148V201.916H250.942V202.774ZM260.808 204.88H262.134V205.894H260.808V208H259.716V205.894H255.816V204.685L259.469 198.796H260.808V204.88ZM259.716 200.07H259.69L256.752 204.88H259.716V200.07ZM267.632 201.916H268.646V202.8H268.672C268.95 202.471 269.27 202.215 269.634 202.033C270.007 201.851 270.414 201.76 270.856 201.76C271.333 201.76 271.766 201.842 272.156 202.007C272.555 202.163 272.893 202.384 273.17 202.67C273.448 202.956 273.664 203.294 273.82 203.684C273.976 204.074 274.054 204.499 274.054 204.958C274.054 205.417 273.976 205.842 273.82 206.232C273.664 206.622 273.448 206.96 273.17 207.246C272.902 207.532 272.581 207.757 272.208 207.922C271.836 208.078 271.437 208.156 271.012 208.156C270.466 208.156 269.985 208.039 269.569 207.805C269.162 207.562 268.863 207.268 268.672 206.921H268.646V210.964H267.632V201.916ZM268.646 204.958C268.646 205.279 268.694 205.578 268.789 205.855C268.893 206.124 269.041 206.362 269.231 206.57C269.422 206.769 269.647 206.93 269.907 207.051C270.176 207.164 270.475 207.22 270.804 207.22C271.134 207.22 271.428 207.164 271.688 207.051C271.957 206.93 272.187 206.769 272.377 206.57C272.568 206.362 272.711 206.124 272.806 205.855C272.91 205.578 272.962 205.279 272.962 204.958C272.962 204.637 272.91 204.343 272.806 204.074C272.711 203.797 272.568 203.558 272.377 203.359C272.187 203.151 271.957 202.991 271.688 202.878C271.428 202.757 271.134 202.696 270.804 202.696C270.475 202.696 270.176 202.757 269.907 202.878C269.647 202.991 269.422 203.151 269.231 203.359C269.041 203.558 268.893 203.797 268.789 204.074C268.694 204.343 268.646 204.637 268.646 204.958ZM275.892 203.359C275.892 203.082 275.883 202.822 275.866 202.579C275.848 202.336 275.84 202.115 275.84 201.916H276.802C276.802 202.081 276.806 202.245 276.815 202.41C276.823 202.575 276.828 202.744 276.828 202.917H276.854C276.923 202.77 277.018 202.627 277.14 202.488C277.27 202.349 277.421 202.228 277.595 202.124C277.768 202.011 277.963 201.925 278.18 201.864C278.396 201.795 278.63 201.76 278.882 201.76C279.211 201.76 279.484 201.803 279.701 201.89C279.926 201.968 280.112 202.068 280.26 202.189C280.407 202.302 280.52 202.427 280.598 202.566C280.684 202.696 280.754 202.813 280.806 202.917C281.031 202.553 281.291 202.271 281.586 202.072C281.88 201.864 282.262 201.76 282.73 201.76C283.163 201.76 283.527 201.821 283.822 201.942C284.116 202.055 284.355 202.224 284.537 202.449C284.719 202.666 284.849 202.934 284.927 203.255C285.005 203.567 285.044 203.918 285.044 204.308V208H284.03V204.36C284.03 204.152 284.008 203.948 283.965 203.749C283.921 203.55 283.843 203.372 283.731 203.216C283.618 203.06 283.466 202.934 283.276 202.839C283.085 202.744 282.842 202.696 282.548 202.696C282.331 202.696 282.127 202.739 281.937 202.826C281.746 202.913 281.577 203.034 281.43 203.19C281.291 203.346 281.178 203.537 281.092 203.762C281.014 203.979 280.975 204.221 280.975 204.49V208H279.961V204.555C279.961 203.879 279.87 203.402 279.688 203.125C279.506 202.839 279.207 202.696 278.791 202.696C278.461 202.696 278.175 202.752 277.933 202.865C277.699 202.978 277.504 203.138 277.348 203.346C277.2 203.554 277.088 203.801 277.01 204.087C276.94 204.373 276.906 204.689 276.906 205.036V208H275.892V203.359Z" fill="white"/>
<path d="M96.9176 218H95.8256V210.2H95.7996L94.1486 211.591L93.4986 210.798L95.9686 208.796H96.9176V218ZM100.215 213.398C100.215 212.878 100.259 212.336 100.345 211.773C100.432 211.21 100.592 210.698 100.826 210.239C101.06 209.771 101.377 209.39 101.775 209.095C102.183 208.792 102.703 208.64 103.335 208.64C103.968 208.64 104.484 208.792 104.882 209.095C105.29 209.39 105.61 209.771 105.844 210.239C106.078 210.698 106.239 211.21 106.325 211.773C106.412 212.336 106.455 212.878 106.455 213.398C106.455 213.918 106.412 214.46 106.325 215.023C106.239 215.586 106.078 216.102 105.844 216.57C105.61 217.029 105.29 217.411 104.882 217.714C104.484 218.009 103.968 218.156 103.335 218.156C102.703 218.156 102.183 218.009 101.775 217.714C101.377 217.411 101.06 217.029 100.826 216.57C100.592 216.102 100.432 215.586 100.345 215.023C100.259 214.46 100.215 213.918 100.215 213.398ZM101.307 213.398C101.307 213.623 101.316 213.875 101.333 214.152C101.351 214.429 101.381 214.711 101.424 214.997C101.476 215.274 101.546 215.547 101.632 215.816C101.728 216.085 101.849 216.323 101.996 216.531C102.152 216.739 102.339 216.908 102.555 217.038C102.772 217.159 103.032 217.22 103.335 217.22C103.639 217.22 103.899 217.159 104.115 217.038C104.332 216.908 104.514 216.739 104.661 216.531C104.817 216.323 104.939 216.085 105.025 215.816C105.121 215.547 105.19 215.274 105.233 214.997C105.285 214.711 105.32 214.429 105.337 214.152C105.355 213.875 105.363 213.623 105.363 213.398C105.363 213.173 105.355 212.921 105.337 212.644C105.32 212.367 105.285 212.089 105.233 211.812C105.19 211.526 105.121 211.249 105.025 210.98C104.939 210.711 104.817 210.473 104.661 210.265C104.514 210.057 104.332 209.892 104.115 209.771C103.899 209.641 103.639 209.576 103.335 209.576C103.032 209.576 102.772 209.641 102.555 209.771C102.339 209.892 102.152 210.057 101.996 210.265C101.849 210.473 101.728 210.711 101.632 210.98C101.546 211.249 101.476 211.526 101.424 211.812C101.381 212.089 101.351 212.367 101.333 212.644C101.316 212.921 101.307 213.173 101.307 213.398ZM109.012 211.76C109.229 211.76 109.411 211.838 109.558 211.994C109.714 212.141 109.792 212.323 109.792 212.54C109.792 212.757 109.71 212.943 109.545 213.099C109.389 213.246 109.211 213.32 109.012 213.32C108.813 213.32 108.631 213.246 108.466 213.099C108.31 212.943 108.232 212.757 108.232 212.54C108.232 212.323 108.306 212.141 108.453 211.994C108.609 211.838 108.795 211.76 109.012 211.76ZM109.012 216.518C109.229 216.518 109.411 216.596 109.558 216.752C109.714 216.899 109.792 217.081 109.792 217.298C109.792 217.515 109.71 217.701 109.545 217.857C109.389 218.004 109.211 218.078 109.012 218.078C108.813 218.078 108.631 218.004 108.466 217.857C108.31 217.701 108.232 217.515 108.232 217.298C108.232 217.081 108.306 216.899 108.453 216.752C108.609 216.596 108.795 216.518 109.012 216.518ZM111.733 216.752L115.204 213.372C115.421 213.164 115.611 212.973 115.776 212.8C115.941 212.618 116.075 212.445 116.179 212.28C116.292 212.107 116.374 211.929 116.426 211.747C116.478 211.565 116.504 211.361 116.504 211.136C116.504 210.893 116.461 210.677 116.374 210.486C116.287 210.295 116.166 210.135 116.01 210.005C115.863 209.866 115.685 209.762 115.477 209.693C115.278 209.615 115.061 209.576 114.827 209.576C114.359 209.576 113.973 209.71 113.67 209.979C113.367 210.248 113.172 210.603 113.085 211.045L111.902 210.941C111.963 210.568 112.075 210.239 112.24 209.953C112.413 209.658 112.626 209.416 112.877 209.225C113.137 209.034 113.427 208.891 113.748 208.796C114.069 208.692 114.415 208.64 114.788 208.64C115.169 208.64 115.529 208.696 115.867 208.809C116.205 208.913 116.5 209.069 116.751 209.277C117.011 209.485 117.215 209.745 117.362 210.057C117.518 210.369 117.596 210.729 117.596 211.136C117.596 211.5 117.544 211.829 117.44 212.124C117.345 212.419 117.21 212.692 117.037 212.943C116.872 213.186 116.682 213.42 116.465 213.645C116.257 213.862 116.036 214.078 115.802 214.295L112.968 216.96V216.986H117.661V218H111.733V216.752ZM124.014 214.88H125.34V215.894H124.014V218H122.922V215.894H119.022V214.685L122.675 208.796H124.014V214.88ZM122.922 210.07H122.896L119.958 214.88H122.922V210.07ZM130.812 212.696C131.124 212.375 131.493 212.141 131.917 211.994C132.351 211.838 132.788 211.76 133.23 211.76C134.132 211.76 134.782 211.972 135.18 212.397C135.579 212.822 135.778 213.467 135.778 214.334V216.947C135.778 217.12 135.787 217.302 135.804 217.493C135.822 217.675 135.843 217.844 135.869 218H134.894C134.86 217.861 134.838 217.71 134.829 217.545C134.829 217.372 134.829 217.22 134.829 217.09H134.803C134.604 217.402 134.335 217.658 133.997 217.857C133.668 218.056 133.269 218.156 132.801 218.156C132.489 218.156 132.195 218.117 131.917 218.039C131.649 217.961 131.41 217.848 131.202 217.701C131.003 217.545 130.843 217.354 130.721 217.129C130.6 216.904 130.539 216.644 130.539 216.349C130.539 215.846 130.669 215.452 130.929 215.166C131.189 214.88 131.51 214.668 131.891 214.529C132.281 214.39 132.697 214.304 133.139 214.269C133.59 214.234 134.002 214.217 134.374 214.217H134.764V214.035C134.764 213.593 134.63 213.259 134.361 213.034C134.101 212.809 133.733 212.696 133.256 212.696C132.927 212.696 132.602 212.752 132.281 212.865C131.969 212.969 131.692 213.134 131.449 213.359L130.812 212.696ZM133.75 215.075C133.1 215.075 132.585 215.166 132.203 215.348C131.822 215.53 131.631 215.829 131.631 216.245C131.631 216.626 131.757 216.899 132.008 217.064C132.268 217.22 132.589 217.298 132.97 217.298C133.265 217.298 133.521 217.25 133.737 217.155C133.963 217.051 134.149 216.917 134.296 216.752C134.444 216.587 134.556 216.397 134.634 216.18C134.712 215.955 134.756 215.716 134.764 215.465V215.075H133.75ZM137.892 213.359C137.892 213.082 137.883 212.822 137.866 212.579C137.848 212.336 137.84 212.115 137.84 211.916H138.802C138.802 212.081 138.806 212.245 138.815 212.41C138.823 212.575 138.828 212.744 138.828 212.917H138.854C138.923 212.77 139.018 212.627 139.14 212.488C139.27 212.349 139.421 212.228 139.595 212.124C139.768 212.011 139.963 211.925 140.18 211.864C140.396 211.795 140.63 211.76 140.882 211.76C141.211 211.76 141.484 211.803 141.701 211.89C141.926 211.968 142.112 212.068 142.26 212.189C142.407 212.302 142.52 212.427 142.598 212.566C142.684 212.696 142.754 212.813 142.806 212.917C143.031 212.553 143.291 212.271 143.586 212.072C143.88 211.864 144.262 211.76 144.73 211.76C145.163 211.76 145.527 211.821 145.822 211.942C146.116 212.055 146.355 212.224 146.537 212.449C146.719 212.666 146.849 212.934 146.927 213.255C147.005 213.567 147.044 213.918 147.044 214.308V218H146.03V214.36C146.03 214.152 146.008 213.948 145.965 213.749C145.921 213.55 145.843 213.372 145.731 213.216C145.618 213.06 145.466 212.934 145.276 212.839C145.085 212.744 144.842 212.696 144.548 212.696C144.331 212.696 144.127 212.739 143.937 212.826C143.746 212.913 143.577 213.034 143.43 213.19C143.291 213.346 143.178 213.537 143.092 213.762C143.014 213.979 142.975 214.221 142.975 214.49V218H141.961V214.555C141.961 213.879 141.87 213.402 141.688 213.125C141.506 212.839 141.207 212.696 140.791 212.696C140.461 212.696 140.175 212.752 139.933 212.865C139.699 212.978 139.504 213.138 139.348 213.346C139.2 213.554 139.088 213.801 139.01 214.087C138.94 214.373 138.906 214.689 138.906 215.036V218H137.892V213.359Z" fill="#8695A0"/>
<rect x="126" y="70.0001" width="68" height="24" rx="12" fill="#072E75"/>
<path d="M149.451 78.8101H146.409V87.0001H145.317V78.8101H142.275V77.7961H149.451V78.8101ZM149.02 83.9581C149.02 83.4814 149.103 83.0481 149.267 82.6581C149.432 82.2681 149.657 81.9344 149.943 81.6571C150.229 81.3711 150.572 81.1501 150.97 80.9941C151.369 80.8381 151.802 80.7601 152.27 80.7601C152.738 80.7601 153.172 80.8381 153.57 80.9941C153.969 81.1501 154.311 81.3711 154.597 81.6571C154.883 81.9344 155.109 82.2681 155.273 82.6581C155.438 83.0481 155.52 83.4814 155.52 83.9581C155.52 84.4347 155.438 84.8681 155.273 85.2581C155.109 85.6481 154.883 85.9861 154.597 86.2721C154.311 86.5494 153.969 86.7661 153.57 86.9221C153.172 87.0781 152.738 87.1561 152.27 87.1561C151.802 87.1561 151.369 87.0781 150.97 86.9221C150.572 86.7661 150.229 86.5494 149.943 86.2721C149.657 85.9861 149.432 85.6481 149.267 85.2581C149.103 84.8681 149.02 84.4347 149.02 83.9581ZM150.112 83.9581C150.112 84.2787 150.16 84.5777 150.255 84.8551C150.359 85.1237 150.507 85.3621 150.697 85.5701C150.888 85.7694 151.113 85.9297 151.373 86.0511C151.642 86.1637 151.941 86.2201 152.27 86.2201C152.6 86.2201 152.894 86.1637 153.154 86.0511C153.423 85.9297 153.653 85.7694 153.843 85.5701C154.034 85.3621 154.177 85.1237 154.272 84.8551C154.376 84.5777 154.428 84.2787 154.428 83.9581C154.428 83.6374 154.376 83.3427 154.272 83.0741C154.177 82.7967 154.034 82.5584 153.843 82.3591C153.653 82.1511 153.423 81.9907 153.154 81.8781C152.894 81.7567 152.6 81.6961 152.27 81.6961C151.941 81.6961 151.642 81.7567 151.373 81.8781C151.113 81.9907 150.888 82.1511 150.697 82.3591C150.507 82.5584 150.359 82.7967 150.255 83.0741C150.16 83.3427 150.112 83.6374 150.112 83.9581ZM162.407 85.9211H162.381C162.191 86.2677 161.887 86.5624 161.471 86.8051C161.064 87.0391 160.587 87.1561 160.041 87.1561C159.617 87.1561 159.218 87.0781 158.845 86.9221C158.473 86.7574 158.148 86.5321 157.87 86.2461C157.602 85.9601 157.389 85.6221 157.233 85.2321C157.077 84.8421 156.999 84.4174 156.999 83.9581C156.999 83.4987 157.077 83.0741 157.233 82.6841C157.389 82.2941 157.606 81.9561 157.883 81.6701C158.161 81.3841 158.494 81.1631 158.884 81.0071C159.283 80.8424 159.721 80.7601 160.197 80.7601C160.639 80.7601 161.042 80.8511 161.406 81.0331C161.779 81.2151 162.104 81.4707 162.381 81.8001H162.407V77.1721H163.421V87.0001H162.407V85.9211ZM162.407 83.9581C162.407 83.6374 162.355 83.3427 162.251 83.0741C162.156 82.7967 162.013 82.5584 161.822 82.3591C161.632 82.1511 161.402 81.9907 161.133 81.8781C160.873 81.7567 160.579 81.6961 160.249 81.6961C159.92 81.6961 159.621 81.7567 159.352 81.8781C159.092 81.9907 158.867 82.1511 158.676 82.3591C158.486 82.5584 158.338 82.7967 158.234 83.0741C158.139 83.3427 158.091 83.6374 158.091 83.9581C158.091 84.2787 158.139 84.5777 158.234 84.8551C158.338 85.1237 158.486 85.3621 158.676 85.5701C158.867 85.7694 159.092 85.9297 159.352 86.0511C159.621 86.1637 159.92 86.2201 160.249 86.2201C160.579 86.2201 160.873 86.1637 161.133 86.0511C161.402 85.9297 161.632 85.7694 161.822 85.5701C162.013 85.3621 162.156 85.1237 162.251 84.8551C162.355 84.5777 162.407 84.2787 162.407 83.9581ZM165.479 81.6961C165.791 81.3754 166.16 81.1414 166.584 80.9941C167.018 80.8381 167.455 80.7601 167.897 80.7601C168.799 80.7601 169.449 80.9724 169.847 81.3971C170.246 81.8217 170.445 82.4674 170.445 83.3341V85.9471C170.445 86.1204 170.454 86.3024 170.471 86.4931C170.489 86.6751 170.51 86.8441 170.536 87.0001H169.561C169.527 86.8614 169.505 86.7097 169.496 86.5451C169.496 86.3717 169.496 86.2201 169.496 86.0901H169.47C169.271 86.4021 169.002 86.6577 168.664 86.8571C168.335 87.0564 167.936 87.1561 167.468 87.1561C167.156 87.1561 166.862 87.1171 166.584 87.0391C166.316 86.9611 166.077 86.8484 165.869 86.7011C165.67 86.5451 165.51 86.3544 165.388 86.1291C165.267 85.9037 165.206 85.6437 165.206 85.3491C165.206 84.8464 165.336 84.4521 165.596 84.1661C165.856 83.8801 166.177 83.6677 166.558 83.5291C166.948 83.3904 167.364 83.3037 167.806 83.2691C168.257 83.2344 168.669 83.2171 169.041 83.2171H169.431V83.0351C169.431 82.5931 169.297 82.2594 169.028 82.0341C168.768 81.8087 168.4 81.6961 167.923 81.6961C167.594 81.6961 167.269 81.7524 166.948 81.8651C166.636 81.9691 166.359 82.1337 166.116 82.3591L165.479 81.6961ZM168.417 84.0751C167.767 84.0751 167.252 84.1661 166.87 84.3481C166.489 84.5301 166.298 84.8291 166.298 85.2451C166.298 85.6264 166.424 85.8994 166.675 86.0641C166.935 86.2201 167.256 86.2981 167.637 86.2981C167.932 86.2981 168.188 86.2504 168.404 86.1551C168.63 86.0511 168.816 85.9167 168.963 85.7521C169.111 85.5874 169.223 85.3967 169.301 85.1801C169.379 84.9547 169.423 84.7164 169.431 84.4651V84.0751H168.417ZM174.795 88.3911C174.691 88.6511 174.582 88.8851 174.47 89.0931C174.366 89.3097 174.236 89.4917 174.08 89.6391C173.932 89.7951 173.75 89.9121 173.534 89.9901C173.326 90.0767 173.07 90.1201 172.767 90.1201C172.619 90.1201 172.463 90.1114 172.299 90.0941C172.143 90.0767 171.995 90.0334 171.857 89.9641L171.987 89.0801C172.091 89.1234 172.199 89.1494 172.312 89.1581C172.424 89.1754 172.554 89.1841 172.702 89.1841C173.031 89.1841 173.274 89.0931 173.43 88.9111C173.586 88.7291 173.72 88.4864 173.833 88.1831L174.249 87.0391L171.727 80.9161H172.91L174.795 85.6871H174.821L176.628 80.9161H177.733L174.795 88.3911Z" fill="white"/>
<rect x="24" y="247" width="222" height="40" rx="20" stroke="#D6DCE0" stroke-width="0.5"/>
<path d="M219.4 269.25L219.464 269.315C221.417 271.267 224.583 271.267 226.536 269.315L226.6 269.25" stroke="#8695A0" stroke-linecap="round" stroke-linejoin="round"/>
<circle cx="223" cy="267" r="9" stroke="#8695A0" stroke-linecap="round" stroke-linejoin="round"/>
<circle cx="220" cy="265" r="1" fill="#8695A0"/>
<circle cx="226" cy="265" r="1" fill="#8695A0"/>
<path d="M42.756 263.44H39.948V271H38.94V263.44H36.132V262.504H42.756V263.44ZM44.7467 272.284C44.6507 272.524 44.5507 272.74 44.4467 272.932C44.3507 273.132 44.2307 273.3 44.0867 273.436C43.9507 273.58 43.7827 273.688 43.5827 273.76C43.3907 273.84 43.1547 273.88 42.8747 273.88C42.7387 273.88 42.5947 273.872 42.4427 273.856C42.2987 273.84 42.1627 273.8 42.0347 273.736L42.1547 272.92C42.2507 272.96 42.3507 272.984 42.4547 272.992C42.5587 273.008 42.6787 273.016 42.8147 273.016C43.1187 273.016 43.3427 272.932 43.4867 272.764C43.6307 272.596 43.7547 272.372 43.8587 272.092L44.2427 271.036L41.9147 265.384H43.0067L44.7467 269.788H44.7707L46.4387 265.384H47.4587L44.7467 272.284ZM48.6637 265.384H49.5997V266.2H49.6237C49.8797 265.896 50.1757 265.66 50.5117 265.492C50.8557 265.324 51.2317 265.24 51.6397 265.24C52.0797 265.24 52.4797 265.316 52.8397 265.468C53.2077 265.612 53.5197 265.816 53.7757 266.08C54.0317 266.344 54.2317 266.656 54.3757 267.016C54.5197 267.376 54.5917 267.768 54.5917 268.192C54.5917 268.616 54.5197 269.008 54.3757 269.368C54.2317 269.728 54.0317 270.04 53.7757 270.304C53.5277 270.568 53.2317 270.776 52.8877 270.928C52.5437 271.072 52.1757 271.144 51.7837 271.144C51.2797 271.144 50.8357 271.036 50.4517 270.82C50.0757 270.596 49.7997 270.324 49.6237 270.004H49.5997V273.736H48.6637V265.384ZM49.5997 268.192C49.5997 268.488 49.6437 268.764 49.7317 269.02C49.8277 269.268 49.9637 269.488 50.1397 269.68C50.3157 269.864 50.5237 270.012 50.7637 270.124C51.0117 270.228 51.2877 270.28 51.5917 270.28C51.8957 270.28 52.1677 270.228 52.4077 270.124C52.6557 270.012 52.8677 269.864 53.0437 269.68C53.2197 269.488 53.3517 269.268 53.4397 269.02C53.5357 268.764 53.5837 268.488 53.5837 268.192C53.5837 267.896 53.5357 267.624 53.4397 267.376C53.3517 267.12 53.2197 266.9 53.0437 266.716C52.8677 266.524 52.6557 266.376 52.4077 266.272C52.1677 266.16 51.8957 266.104 51.5917 266.104C51.2877 266.104 51.0117 266.16 50.7637 266.272C50.5237 266.376 50.3157 266.524 50.1397 266.716C49.9637 266.9 49.8277 267.12 49.7317 267.376C49.6437 267.624 49.5997 267.896 49.5997 268.192ZM61.3037 269.98C60.9677 270.412 60.5997 270.716 60.1997 270.892C59.7997 271.06 59.3357 271.144 58.8077 271.144C58.3677 271.144 57.9717 271.068 57.6197 270.916C57.2677 270.756 56.9677 270.544 56.7197 270.28C56.4797 270.016 56.2917 269.704 56.1557 269.344C56.0277 268.984 55.9637 268.6 55.9637 268.192C55.9637 267.76 56.0357 267.364 56.1797 267.004C56.3237 266.636 56.5237 266.324 56.7797 266.068C57.0357 265.804 57.3397 265.6 57.6917 265.456C58.0437 265.312 58.4277 265.24 58.8437 265.24C59.2357 265.24 59.5957 265.308 59.9237 265.444C60.2517 265.572 60.5317 265.764 60.7637 266.02C61.0037 266.268 61.1877 266.576 61.3157 266.944C61.4437 267.304 61.5077 267.716 61.5077 268.18V268.48H56.9717C56.9877 268.72 57.0437 268.952 57.1397 269.176C57.2437 269.392 57.3757 269.584 57.5357 269.752C57.6957 269.912 57.8837 270.04 58.0997 270.136C58.3157 270.232 58.5517 270.28 58.8077 270.28C59.2157 270.28 59.5597 270.208 59.8397 270.064C60.1197 269.92 60.3717 269.708 60.5957 269.428L61.3037 269.98ZM60.4997 267.688C60.4837 267.208 60.3277 266.824 60.0317 266.536C59.7357 266.248 59.3277 266.104 58.8077 266.104C58.2877 266.104 57.8677 266.248 57.5477 266.536C57.2277 266.824 57.0357 267.208 56.9717 267.688H60.4997ZM66.7755 261.928H67.7115V266.164H67.7355C67.7995 266.052 67.8875 265.944 67.9995 265.84C68.1115 265.728 68.2435 265.628 68.3955 265.54C68.5555 265.452 68.7315 265.38 68.9235 265.324C69.1155 265.268 69.3195 265.24 69.5355 265.24C69.9035 265.24 70.2195 265.296 70.4835 265.408C70.7555 265.52 70.9795 265.676 71.1555 265.876C71.3315 266.076 71.4595 266.32 71.5395 266.608C71.6275 266.888 71.6715 267.196 71.6715 267.532V271H70.7355V267.628C70.7355 267.156 70.6315 266.784 70.4235 266.512C70.2155 266.24 69.8915 266.104 69.4515 266.104C69.1475 266.104 68.8835 266.156 68.6595 266.26C68.4435 266.364 68.2635 266.512 68.1195 266.704C67.9835 266.896 67.8795 267.124 67.8075 267.388C67.7435 267.652 67.7115 267.944 67.7115 268.264V271H66.7755V261.928ZM78.6995 269.98C78.3635 270.412 77.9955 270.716 77.5955 270.892C77.1955 271.06 76.7315 271.144 76.2035 271.144C75.7635 271.144 75.3675 271.068 75.0155 270.916C74.6635 270.756 74.3635 270.544 74.1155 270.28C73.8755 270.016 73.6875 269.704 73.5515 269.344C73.4235 268.984 73.3595 268.6 73.3595 268.192C73.3595 267.76 73.4315 267.364 73.5755 267.004C73.7195 266.636 73.9195 266.324 74.1755 266.068C74.4315 265.804 74.7355 265.6 75.0875 265.456C75.4395 265.312 75.8235 265.24 76.2395 265.24C76.6315 265.24 76.9915 265.308 77.3195 265.444C77.6475 265.572 77.9275 265.764 78.1595 266.02C78.3995 266.268 78.5835 266.576 78.7115 266.944C78.8395 267.304 78.9035 267.716 78.9035 268.18V268.48H74.3675C74.3835 268.72 74.4395 268.952 74.5355 269.176C74.6395 269.392 74.7715 269.584 74.9315 269.752C75.0915 269.912 75.2795 270.04 75.4955 270.136C75.7115 270.232 75.9475 270.28 76.2035 270.28C76.6115 270.28 76.9555 270.208 77.2355 270.064C77.5155 269.92 77.7675 269.708 77.9915 269.428L78.6995 269.98ZM77.8955 267.688C77.8795 267.208 77.7235 266.824 77.4275 266.536C77.1315 266.248 76.7235 266.104 76.2035 266.104C75.6835 266.104 75.2635 266.248 74.9435 266.536C74.6235 266.824 74.4315 267.208 74.3675 267.688H77.8955ZM80.5914 266.716C80.5914 266.46 80.5834 266.22 80.5674 265.996C80.5514 265.772 80.5434 265.568 80.5434 265.384H81.4314C81.4314 265.536 81.4354 265.688 81.4434 265.84C81.4514 265.992 81.4554 266.148 81.4554 266.308H81.4794C81.5434 266.172 81.6314 266.04 81.7434 265.912C81.8634 265.784 82.0034 265.672 82.1634 265.576C82.3234 265.472 82.5034 265.392 82.7034 265.336C82.9034 265.272 83.1194 265.24 83.3514 265.24C83.4154 265.24 83.4794 265.244 83.5434 265.252C83.6074 265.26 83.6714 265.276 83.7354 265.3L83.6754 266.248C83.5154 266.2 83.3474 266.176 83.1714 266.176C82.5954 266.176 82.1754 266.364 81.9114 266.74C81.6554 267.108 81.5274 267.616 81.5274 268.264V271H80.5914V266.716ZM89.8552 269.98C89.5192 270.412 89.1512 270.716 88.7512 270.892C88.3512 271.06 87.8872 271.144 87.3592 271.144C86.9192 271.144 86.5232 271.068 86.1712 270.916C85.8192 270.756 85.5192 270.544 85.2712 270.28C85.0312 270.016 84.8432 269.704 84.7072 269.344C84.5792 268.984 84.5152 268.6 84.5152 268.192C84.5152 267.76 84.5872 267.364 84.7312 267.004C84.8752 266.636 85.0752 266.324 85.3312 266.068C85.5872 265.804 85.8912 265.6 86.2432 265.456C86.5952 265.312 86.9792 265.24 87.3952 265.24C87.7872 265.24 88.1472 265.308 88.4752 265.444C88.8032 265.572 89.0832 265.764 89.3152 266.02C89.5552 266.268 89.7392 266.576 89.8672 266.944C89.9952 267.304 90.0592 267.716 90.0592 268.18V268.48H85.5232C85.5392 268.72 85.5952 268.952 85.6912 269.176C85.7952 269.392 85.9272 269.584 86.0872 269.752C86.2472 269.912 86.4352 270.04 86.6512 270.136C86.8672 270.232 87.1032 270.28 87.3592 270.28C87.7672 270.28 88.1112 270.208 88.3912 270.064C88.6712 269.92 88.9232 269.708 89.1472 269.428L89.8552 269.98ZM89.0512 267.688C89.0352 267.208 88.8792 266.824 88.5832 266.536C88.2872 266.248 87.8792 266.104 87.3592 266.104C86.8392 266.104 86.4192 266.248 86.0992 266.536C85.7792 266.824 85.5872 267.208 85.5232 267.688H89.0512ZM92.5272 269.632C92.7272 269.632 92.8952 269.704 93.0312 269.848C93.1752 269.984 93.2472 270.152 93.2472 270.352C93.2472 270.552 93.1712 270.724 93.0192 270.868C92.8752 271.004 92.7112 271.072 92.5272 271.072C92.3432 271.072 92.1752 271.004 92.0232 270.868C91.8792 270.724 91.8072 270.552 91.8072 270.352C91.8072 270.152 91.8752 269.984 92.0112 269.848C92.1552 269.704 92.3272 269.632 92.5272 269.632ZM96.1071 269.632C96.3071 269.632 96.4751 269.704 96.6111 269.848C96.7551 269.984 96.8271 270.152 96.8271 270.352C96.8271 270.552 96.7511 270.724 96.5991 270.868C96.4551 271.004 96.2911 271.072 96.1071 271.072C95.9231 271.072 95.7551 271.004 95.6031 270.868C95.4591 270.724 95.3871 270.552 95.3871 270.352C95.3871 270.152 95.4551 269.984 95.5911 269.848C95.7351 269.704 95.9071 269.632 96.1071 269.632ZM99.6869 269.632C99.8869 269.632 100.055 269.704 100.191 269.848C100.335 269.984 100.407 270.152 100.407 270.352C100.407 270.552 100.331 270.724 100.179 270.868C100.035 271.004 99.8709 271.072 99.6869 271.072C99.5029 271.072 99.3349 271.004 99.1829 270.868C99.0389 270.724 98.9669 270.552 98.9669 270.352C98.9669 270.152 99.0349 269.984 99.1709 269.848C99.3149 269.704 99.4869 269.632 99.6869 269.632Z" fill="#B7BFC6"/>
<rect x="256" y="247" width="40" height="40" rx="20" fill="#F4694C"/>
<path d="M269.065 273.106L270.725 267.358L269.065 261.61C268.998 261.378 268.999 261.131 269.068 260.899C269.138 260.667 269.273 260.46 269.457 260.303C269.64 260.145 269.866 260.044 270.106 260.012C270.345 259.979 270.59 260.016 270.809 260.118L284.385 266.423C284.568 266.506 284.724 266.641 284.833 266.81C284.942 266.98 285 267.177 285 267.379C285 267.581 284.942 267.778 284.833 267.947C284.724 268.117 284.568 268.252 284.385 268.335L270.809 274.64C270.586 274.747 270.336 274.787 270.09 274.753C269.845 274.72 269.614 274.615 269.428 274.451C269.242 274.287 269.108 274.072 269.044 273.833C268.979 273.594 268.986 273.341 269.065 273.106Z" stroke="white" stroke-width="1.5" stroke-linecap="round" stroke-linejoin="round"/>
<path d="M270.725 267.358H275.286" stroke="white" stroke-width="1.5" stroke-linecap="round" stroke-linejoin="round"/>
</svg>
