<svg width="102" height="32" viewBox="0 0 102 32" fill="none" xmlns="http://www.w3.org/2000/svg">
<rect width="102" height="32.0024" rx="16.0012" fill="#E7F7F8"/>
<path d="M40.936 12.338C40.74 12.0207 40.4787 11.792 40.152 11.652C39.8253 11.5027 39.4847 11.428 39.13 11.428C38.8687 11.428 38.612 11.4607 38.36 11.526C38.108 11.5913 37.8793 11.6893 37.674 11.82C37.478 11.9507 37.3193 12.1233 37.198 12.338C37.0767 12.5527 37.016 12.8047 37.016 13.094C37.016 13.318 37.0487 13.5187 37.114 13.696C37.1887 13.864 37.3053 14.018 37.464 14.158C37.6227 14.298 37.8373 14.4287 38.108 14.55C38.3787 14.6713 38.71 14.7927 39.102 14.914C39.4847 15.0353 39.8533 15.166 40.208 15.306C40.572 15.446 40.8893 15.6233 41.16 15.838C41.44 16.0527 41.6593 16.3233 41.818 16.65C41.986 16.9673 42.07 17.3687 42.07 17.854C42.07 18.3487 41.972 18.778 41.776 19.142C41.58 19.506 41.3187 19.8093 40.992 20.052C40.6747 20.2853 40.306 20.458 39.886 20.57C39.466 20.6913 39.032 20.752 38.584 20.752C38.2947 20.752 38.0053 20.724 37.716 20.668C37.4267 20.6213 37.1467 20.5467 36.876 20.444C36.6147 20.332 36.3673 20.192 36.134 20.024C35.9007 19.8467 35.7 19.632 35.532 19.38L36.54 18.554C36.7547 18.918 37.0533 19.1933 37.436 19.38C37.8187 19.5667 38.2247 19.66 38.654 19.66C38.906 19.66 39.158 19.6227 39.41 19.548C39.6713 19.4733 39.9047 19.366 40.11 19.226C40.3153 19.0767 40.4833 18.8947 40.614 18.68C40.7447 18.4653 40.81 18.218 40.81 17.938C40.81 17.63 40.7587 17.3827 40.656 17.196C40.5533 17 40.3947 16.832 40.18 16.692C39.9653 16.552 39.6947 16.426 39.368 16.314C39.0413 16.202 38.6587 16.0713 38.22 15.922C37.8653 15.81 37.5387 15.684 37.24 15.544C36.9413 15.3947 36.68 15.2173 36.456 15.012C36.2413 14.7973 36.0687 14.5453 35.938 14.256C35.8167 13.9573 35.756 13.6027 35.756 13.192C35.756 12.716 35.8493 12.3007 36.036 11.946C36.2227 11.5913 36.4747 11.2973 36.792 11.064C37.1093 10.8213 37.4687 10.6393 37.87 10.518C38.2713 10.3967 38.6913 10.336 39.13 10.336C39.69 10.336 40.1987 10.4247 40.656 10.602C41.1227 10.77 41.538 11.0687 41.902 11.498L40.936 12.338ZM44.0953 9.916H45.1873V16.832L48.1693 13.948H49.7233L46.5593 16.93L50.0453 20.5H48.4353L45.1873 17.056V20.5H44.0953V9.916ZM51.2913 14.788C51.6273 14.4427 52.024 14.1907 52.4813 14.032C52.948 13.864 53.4193 13.78 53.8953 13.78C54.866 13.78 55.566 14.0087 55.9953 14.466C56.4246 14.9233 56.6393 15.6187 56.6393 16.552V19.366C56.6393 19.5527 56.6486 19.7487 56.6673 19.954C56.686 20.15 56.7093 20.332 56.7373 20.5H55.6873C55.65 20.3507 55.6266 20.1873 55.6173 20.01C55.6173 19.8233 55.6173 19.66 55.6173 19.52H55.5893C55.3746 19.856 55.0853 20.1313 54.7213 20.346C54.3666 20.5607 53.9373 20.668 53.4333 20.668C53.0973 20.668 52.78 20.626 52.4813 20.542C52.192 20.458 51.9353 20.3367 51.7113 20.178C51.4966 20.01 51.324 19.8047 51.1933 19.562C51.0626 19.3193 50.9973 19.0393 50.9973 18.722C50.9973 18.1807 51.1373 17.756 51.4173 17.448C51.6973 17.14 52.0426 16.9113 52.4533 16.762C52.8733 16.6127 53.3213 16.5193 53.7973 16.482C54.2826 16.4447 54.726 16.426 55.1273 16.426H55.5473V16.23C55.5473 15.754 55.4026 15.3947 55.1133 15.152C54.8333 14.9093 54.4366 14.788 53.9233 14.788C53.5686 14.788 53.2186 14.8487 52.8733 14.97C52.5373 15.082 52.2386 15.2593 51.9773 15.502L51.2913 14.788ZM54.4553 17.35C53.7553 17.35 53.2 17.448 52.7893 17.644C52.3786 17.84 52.1733 18.162 52.1733 18.61C52.1733 19.0207 52.3086 19.3147 52.5793 19.492C52.8593 19.66 53.2046 19.744 53.6153 19.744C53.9326 19.744 54.208 19.6927 54.4413 19.59C54.684 19.478 54.8846 19.3333 55.0433 19.156C55.202 18.9787 55.3233 18.7733 55.4073 18.54C55.4913 18.2973 55.538 18.0407 55.5473 17.77V17.35H54.4553ZM62.4991 14.872H60.5671V18.148C60.5671 18.3627 60.5717 18.5633 60.5811 18.75C60.5904 18.9273 60.6277 19.086 60.6931 19.226C60.7584 19.3567 60.8564 19.464 60.9871 19.548C61.1177 19.6227 61.3044 19.66 61.5471 19.66C61.7057 19.66 61.8691 19.6413 62.0371 19.604C62.2051 19.5667 62.3637 19.5107 62.5131 19.436L62.5551 20.43C62.3684 20.514 62.1584 20.5747 61.9251 20.612C61.7011 20.6493 61.4864 20.668 61.2811 20.668C60.8891 20.668 60.5764 20.6167 60.3431 20.514C60.1097 20.4113 59.9277 20.2667 59.7971 20.08C59.6664 19.8933 59.5777 19.6647 59.5311 19.394C59.4937 19.114 59.4751 18.806 59.4751 18.47V14.872H58.0471V13.948H59.4751V12.086H60.5671V13.948H62.4991V14.872ZM69.9689 19.31C69.5769 19.814 69.1476 20.1687 68.6809 20.374C68.2143 20.57 67.6729 20.668 67.0569 20.668C66.5436 20.668 66.0816 20.5793 65.6709 20.402C65.2603 20.2153 64.9103 19.968 64.6209 19.66C64.3409 19.352 64.1216 18.988 63.9629 18.568C63.8136 18.148 63.7389 17.7 63.7389 17.224C63.7389 16.72 63.8229 16.258 63.9909 15.838C64.1589 15.4087 64.3923 15.0447 64.6909 14.746C64.9896 14.438 65.3443 14.2 65.7549 14.032C66.1656 13.864 66.6136 13.78 67.0989 13.78C67.5563 13.78 67.9763 13.8593 68.3589 14.018C68.7416 14.1673 69.0683 14.3913 69.3389 14.69C69.6189 14.9793 69.8336 15.3387 69.9829 15.768C70.1323 16.188 70.2069 16.6687 70.2069 17.21V17.56H64.9149C64.9336 17.84 64.9989 18.1107 65.1109 18.372C65.2323 18.624 65.3863 18.848 65.5729 19.044C65.7596 19.2307 65.9789 19.38 66.2309 19.492C66.4829 19.604 66.7583 19.66 67.0569 19.66C67.5329 19.66 67.9343 19.576 68.2609 19.408C68.5876 19.24 68.8816 18.9927 69.1429 18.666L69.9689 19.31ZM69.0309 16.636C69.0123 16.076 68.8303 15.628 68.4849 15.292C68.1396 14.956 67.6636 14.788 67.0569 14.788C66.4503 14.788 65.9603 14.956 65.5869 15.292C65.2136 15.628 64.9896 16.076 64.9149 16.636H69.0309ZM72.1762 15.502C72.1762 15.2033 72.1669 14.9233 72.1482 14.662C72.1296 14.4007 72.1202 14.1627 72.1202 13.948H73.1562C73.1562 14.1253 73.1609 14.3027 73.1702 14.48C73.1796 14.6573 73.1842 14.8393 73.1842 15.026H73.2122C73.2869 14.8673 73.3896 14.7133 73.5202 14.564C73.6602 14.4147 73.8236 14.284 74.0102 14.172C74.1969 14.0507 74.4069 13.9573 74.6402 13.892C74.8736 13.8173 75.1256 13.78 75.3962 13.78C75.4709 13.78 75.5456 13.7847 75.6202 13.794C75.6949 13.8033 75.7696 13.822 75.8442 13.85L75.7742 14.956C75.5876 14.9 75.3916 14.872 75.1862 14.872C74.5142 14.872 74.0242 15.0913 73.7162 15.53C73.4176 15.9593 73.2682 16.552 73.2682 17.308V20.5H72.1762V15.502ZM77.5181 18.778C77.7328 19.0487 77.9661 19.2633 78.2181 19.422C78.4794 19.5807 78.8061 19.66 79.1981 19.66C79.3661 19.66 79.5341 19.6413 79.7021 19.604C79.8794 19.5667 80.0381 19.506 80.1781 19.422C80.3181 19.338 80.4301 19.2353 80.5141 19.114C80.5981 18.9833 80.6401 18.8293 80.6401 18.652C80.6401 18.4747 80.5981 18.33 80.5141 18.218C80.4394 18.106 80.3368 18.0127 80.2061 17.938C80.0754 17.854 79.9261 17.7887 79.7581 17.742C79.5901 17.6953 79.4174 17.6533 79.2401 17.616C78.9321 17.5507 78.6381 17.476 78.3581 17.392C78.0781 17.308 77.8308 17.2007 77.6161 17.07C77.4108 16.93 77.2428 16.7527 77.1121 16.538C76.9908 16.3233 76.9301 16.048 76.9301 15.712C76.9301 15.3947 77.0001 15.1147 77.1401 14.872C77.2801 14.6293 77.4668 14.4287 77.7001 14.27C77.9334 14.1113 78.1948 13.99 78.4841 13.906C78.7734 13.822 79.0721 13.78 79.3801 13.78C79.8468 13.78 80.2761 13.8733 80.6681 14.06C81.0694 14.2467 81.3821 14.55 81.6061 14.97L80.6961 15.572C80.5561 15.3387 80.3694 15.152 80.1361 15.012C79.9121 14.8627 79.6368 14.788 79.3101 14.788C79.1608 14.788 79.0068 14.8067 78.8481 14.844C78.6988 14.8813 78.5634 14.9373 78.4421 15.012C78.3208 15.0867 78.2181 15.1847 78.1341 15.306C78.0594 15.418 78.0221 15.5487 78.0221 15.698C78.0221 15.838 78.0641 15.9593 78.1481 16.062C78.2414 16.1553 78.3628 16.2393 78.5121 16.314C78.6708 16.3887 78.8481 16.454 79.0441 16.51C79.2494 16.566 79.4594 16.6127 79.6741 16.65C79.9634 16.706 80.2388 16.7807 80.5001 16.874C80.7614 16.958 80.9901 17.0747 81.1861 17.224C81.3821 17.3733 81.5361 17.56 81.6481 17.784C81.7601 18.008 81.8161 18.2833 81.8161 18.61C81.8161 18.9833 81.7414 19.3007 81.5921 19.562C81.4428 19.8233 81.2421 20.038 80.9901 20.206C80.7474 20.3647 80.4674 20.4813 80.1501 20.556C79.8421 20.6307 79.5248 20.668 79.1981 20.668C78.6381 20.668 78.1528 20.584 77.7421 20.416C77.3408 20.2387 76.9768 19.9167 76.6501 19.45L77.5181 18.778Z" fill="#0F3F62"/>
<circle cx="23" cy="16.5" r="4" fill="#54BCBD"/>
</svg>
