<svg width="102" height="32" viewBox="0 0 102 32" fill="none" xmlns="http://www.w3.org/2000/svg">
<rect width="102" height="32.0024" rx="16.0012" fill="#FFECE8"/>
<path d="M38.57 16.23L34.874 10.588H36.372L39.158 15.068L42.028 10.588H43.442L39.746 16.23V20.5H38.57V16.23ZM42.6919 17.224C42.6919 16.7107 42.7806 16.244 42.9579 15.824C43.1352 15.404 43.3779 15.0447 43.6859 14.746C43.9939 14.438 44.3626 14.2 44.7919 14.032C45.2212 13.864 45.6879 13.78 46.1919 13.78C46.6959 13.78 47.1626 13.864 47.5919 14.032C48.0212 14.2 48.3899 14.438 48.6979 14.746C49.0059 15.0447 49.2486 15.404 49.4259 15.824C49.6032 16.244 49.6919 16.7107 49.6919 17.224C49.6919 17.7373 49.6032 18.204 49.4259 18.624C49.2486 19.044 49.0059 19.408 48.6979 19.716C48.3899 20.0147 48.0212 20.248 47.5919 20.416C47.1626 20.584 46.6959 20.668 46.1919 20.668C45.6879 20.668 45.2212 20.584 44.7919 20.416C44.3626 20.248 43.9939 20.0147 43.6859 19.716C43.3779 19.408 43.1352 19.044 42.9579 18.624C42.7806 18.204 42.6919 17.7373 42.6919 17.224ZM43.8679 17.224C43.8679 17.5693 43.9192 17.8913 44.0219 18.19C44.1339 18.4793 44.2926 18.736 44.4979 18.96C44.7032 19.1747 44.9459 19.3473 45.2259 19.478C45.5152 19.5993 45.8372 19.66 46.1919 19.66C46.5466 19.66 46.8639 19.5993 47.1439 19.478C47.4332 19.3473 47.6806 19.1747 47.8859 18.96C48.0912 18.736 48.2452 18.4793 48.3479 18.19C48.4599 17.8913 48.5159 17.5693 48.5159 17.224C48.5159 16.8787 48.4599 16.5613 48.3479 16.272C48.2452 15.9733 48.0912 15.7167 47.8859 15.502C47.6806 15.278 47.4332 15.1053 47.1439 14.984C46.8639 14.8533 46.5466 14.788 46.1919 14.788C45.8372 14.788 45.5152 14.8533 45.2259 14.984C44.9459 15.1053 44.7032 15.278 44.4979 15.502C44.2926 15.7167 44.1339 15.9733 44.0219 16.272C43.9192 16.5613 43.8679 16.8787 43.8679 17.224ZM58.2004 20.206C58.2004 21.4007 57.8924 22.306 57.2764 22.922C56.6697 23.5473 55.7877 23.86 54.6304 23.86C53.9864 23.86 53.4031 23.7667 52.8804 23.58C52.3671 23.3933 51.8771 23.0713 51.4104 22.614L52.1944 21.718C52.5397 22.0913 52.9037 22.3713 53.2864 22.558C53.6784 22.754 54.1264 22.852 54.6304 22.852C55.1157 22.852 55.5171 22.7773 55.8344 22.628C56.1611 22.488 56.4177 22.292 56.6044 22.04C56.7911 21.7973 56.9217 21.5173 56.9964 21.2C57.0711 20.8827 57.1084 20.5513 57.1084 20.206V19.366H57.0804C56.8191 19.786 56.4784 20.094 56.0584 20.29C55.6384 20.486 55.2091 20.584 54.7704 20.584C54.2571 20.584 53.7857 20.5 53.3564 20.332C52.9271 20.164 52.5584 19.9307 52.2504 19.632C51.9424 19.3333 51.7044 18.9787 51.5364 18.568C51.3684 18.1573 51.2844 17.7093 51.2844 17.224C51.2844 16.692 51.3684 16.2113 51.5364 15.782C51.7044 15.3527 51.9377 14.9933 52.2364 14.704C52.5444 14.4053 52.9131 14.1767 53.3424 14.018C53.7717 13.8593 54.2477 13.78 54.7704 13.78C54.9944 13.78 55.2184 13.808 55.4424 13.864C55.6664 13.9107 55.8811 13.99 56.0864 14.102C56.3011 14.2047 56.4924 14.34 56.6604 14.508C56.8284 14.6667 56.9684 14.8533 57.0804 15.068H57.1084V13.948H58.2004V20.206ZM52.4604 17.224C52.4604 17.56 52.5211 17.8727 52.6424 18.162C52.7637 18.442 52.9271 18.6893 53.1324 18.904C53.3471 19.1093 53.5944 19.2727 53.8744 19.394C54.1544 19.5153 54.4531 19.576 54.7704 19.576C55.1437 19.576 55.4751 19.5107 55.7644 19.38C56.0537 19.2493 56.2964 19.0767 56.4924 18.862C56.6977 18.638 56.8517 18.386 56.9544 18.106C57.0571 17.8167 57.1084 17.5133 57.1084 17.196C57.1084 16.8413 57.0524 16.5193 56.9404 16.23C56.8284 15.9313 56.6697 15.6747 56.4644 15.46C56.2591 15.2453 56.0117 15.082 55.7224 14.97C55.4331 14.8487 55.1157 14.788 54.7704 14.788C54.4251 14.788 54.1077 14.8533 53.8184 14.984C53.5384 15.1053 53.2957 15.278 53.0904 15.502C52.8944 15.7167 52.7404 15.9733 52.6284 16.272C52.5164 16.5613 52.4604 16.8787 52.4604 17.224ZM60.417 14.788C60.753 14.4427 61.1497 14.1907 61.607 14.032C62.0737 13.864 62.545 13.78 63.021 13.78C63.9917 13.78 64.6917 14.0087 65.121 14.466C65.5503 14.9233 65.765 15.6187 65.765 16.552V19.366C65.765 19.5527 65.7743 19.7487 65.793 19.954C65.8117 20.15 65.835 20.332 65.863 20.5H64.813C64.7757 20.3507 64.7523 20.1873 64.743 20.01C64.743 19.8233 64.743 19.66 64.743 19.52H64.715C64.5003 19.856 64.211 20.1313 63.847 20.346C63.4923 20.5607 63.063 20.668 62.559 20.668C62.223 20.668 61.9057 20.626 61.607 20.542C61.3177 20.458 61.061 20.3367 60.837 20.178C60.6223 20.01 60.4497 19.8047 60.319 19.562C60.1883 19.3193 60.123 19.0393 60.123 18.722C60.123 18.1807 60.263 17.756 60.543 17.448C60.823 17.14 61.1683 16.9113 61.579 16.762C61.999 16.6127 62.447 16.5193 62.923 16.482C63.4083 16.4447 63.8517 16.426 64.253 16.426H64.673V16.23C64.673 15.754 64.5283 15.3947 64.239 15.152C63.959 14.9093 63.5623 14.788 63.049 14.788C62.6943 14.788 62.3443 14.8487 61.999 14.97C61.663 15.082 61.3643 15.2593 61.103 15.502L60.417 14.788ZM63.581 17.35C62.881 17.35 62.3257 17.448 61.915 17.644C61.5043 17.84 61.299 18.162 61.299 18.61C61.299 19.0207 61.4343 19.3147 61.705 19.492C61.985 19.66 62.3303 19.744 62.741 19.744C63.0583 19.744 63.3337 19.6927 63.567 19.59C63.8097 19.478 64.0103 19.3333 64.169 19.156C64.3277 18.9787 64.449 18.7733 64.533 18.54C64.617 18.2973 64.6637 18.0407 64.673 17.77V17.35H63.581ZM68.1808 18.778C68.3954 19.0487 68.6288 19.2633 68.8808 19.422C69.1421 19.5807 69.4688 19.66 69.8608 19.66C70.0288 19.66 70.1968 19.6413 70.3648 19.604C70.5421 19.5667 70.7008 19.506 70.8408 19.422C70.9808 19.338 71.0928 19.2353 71.1768 19.114C71.2608 18.9833 71.3028 18.8293 71.3028 18.652C71.3028 18.4747 71.2608 18.33 71.1768 18.218C71.1021 18.106 70.9994 18.0127 70.8688 17.938C70.7381 17.854 70.5888 17.7887 70.4208 17.742C70.2528 17.6953 70.0801 17.6533 69.9028 17.616C69.5948 17.5507 69.3008 17.476 69.0208 17.392C68.7408 17.308 68.4934 17.2007 68.2788 17.07C68.0734 16.93 67.9054 16.7527 67.7748 16.538C67.6534 16.3233 67.5928 16.048 67.5928 15.712C67.5928 15.3947 67.6628 15.1147 67.8028 14.872C67.9428 14.6293 68.1294 14.4287 68.3628 14.27C68.5961 14.1113 68.8574 13.99 69.1468 13.906C69.4361 13.822 69.7348 13.78 70.0428 13.78C70.5094 13.78 70.9388 13.8733 71.3308 14.06C71.7321 14.2467 72.0448 14.55 72.2688 14.97L71.3588 15.572C71.2188 15.3387 71.0321 15.152 70.7988 15.012C70.5748 14.8627 70.2994 14.788 69.9728 14.788C69.8234 14.788 69.6694 14.8067 69.5108 14.844C69.3614 14.8813 69.2261 14.9373 69.1048 15.012C68.9834 15.0867 68.8808 15.1847 68.7968 15.306C68.7221 15.418 68.6848 15.5487 68.6848 15.698C68.6848 15.838 68.7268 15.9593 68.8108 16.062C68.9041 16.1553 69.0254 16.2393 69.1748 16.314C69.3334 16.3887 69.5108 16.454 69.7068 16.51C69.9121 16.566 70.1221 16.6127 70.3368 16.65C70.6261 16.706 70.9014 16.7807 71.1628 16.874C71.4241 16.958 71.6528 17.0747 71.8488 17.224C72.0448 17.3733 72.1988 17.56 72.3108 17.784C72.4228 18.008 72.4788 18.2833 72.4788 18.61C72.4788 18.9833 72.4041 19.3007 72.2548 19.562C72.1054 19.8233 71.9048 20.038 71.6528 20.206C71.4101 20.3647 71.1301 20.4813 70.8128 20.556C70.5048 20.6307 70.1874 20.668 69.8608 20.668C69.3008 20.668 68.8154 20.584 68.4048 20.416C68.0034 20.2387 67.6394 19.9167 67.3128 19.45L68.1808 18.778Z" fill="#0F3F62"/>
<circle cx="23" cy="16.5" r="4" fill="#F4694C"/>
</svg>
